<?xml version="1.0" standalone="no"?>
<!DOCTYPE svg PUBLIC "-//W3C//DTD SVG 20010904//EN"
 "http://www.w3.org/TR/2001/REC-SVG-20010904/DTD/svg10.dtd">
<svg version="1.0" xmlns="http://www.w3.org/2000/svg"
 width="894.000000pt" height="1371.000000pt" viewBox="0 0 894.000000 1371.000000"
 preserveAspectRatio="xMidYMid meet">

<g transform="translate(0.000000,1371.000000) scale(0.100000,-0.100000)"
fill="#000000" stroke="none">
<path d="M603 13673 c3 -21 18 -101 32 -178 32 -178 41 -244 60 -487 8 -108
20 -221 27 -250 7 -29 12 -123 12 -209 1 -197 -3 -204 -101 -214 -37 -4 -90
-14 -118 -23 -32 -10 -88 -16 -155 -16 -107 -1 -311 11 -342 20 -17 5 -18 -21
-18 -449 0 -513 -9 -467 86 -467 30 0 54 -4 54 -10 0 -5 13 -10 29 -10 38 0
96 -21 82 -30 -7 -4 -31 -3 -54 1 -23 4 -60 10 -82 14 -22 4 -47 9 -55 13 -8
3 -25 6 -37 7 -22 1 -23 -2 -23 -87 0 -84 1 -88 23 -90 44 -3 52 -5 77 -13 14
-4 48 -9 75 -10 28 -1 64 -7 80 -13 17 -6 66 -18 110 -27 44 -9 88 -20 97 -26
10 -5 23 -9 30 -9 16 -1 58 -35 58 -48 0 -5 6 -15 14 -21 7 -6 16 -24 19 -40
7 -32 44 -52 57 -31 5 8 9 7 14 -5 9 -25 7 -65 -4 -65 -5 0 -10 7 -10 16 0 16
-10 15 -80 -3 -14 -4 -68 -8 -121 -10 -86 -4 -100 -2 -144 20 -38 20 -54 23
-74 16 -25 -10 -106 3 -143 22 -9 5 -31 6 -48 3 l-30 -6 0 -223 0 -223 50 -11
c28 -6 63 -11 77 -11 84 0 297 -36 330 -56 13 -8 51 -14 93 -14 57 0 74 -4 90
-20 12 -12 31 -25 44 -30 19 -7 22 -14 18 -41 -4 -26 -2 -31 11 -26 11 4 14 2
10 -9 -3 -7 0 -14 6 -14 6 0 11 9 11 20 0 20 3 21 65 24 12 1 20 8 20 19 0 10
9 23 20 29 11 6 25 17 32 25 7 9 18 13 26 10 17 -7 13 -70 -10 -157 -8 -30
-19 -74 -24 -98 -5 -24 -11 -47 -14 -52 -3 -5 -10 -35 -16 -66 -16 -86 -51
-100 -101 -40 -13 16 -18 17 -19 6 0 -8 -2 -24 -4 -35 -11 -62 -13 -59 38 -56
26 1 47 -2 47 -8 0 -5 7 -17 16 -25 14 -15 13 -17 -15 -22 -34 -7 -40 -20 -13
-28 9 -3 4 -3 -13 1 -16 3 -51 5 -77 5 -33 0 -48 4 -52 15 -5 12 -9 13 -21 3
-21 -18 -227 -13 -284 6 -24 8 -50 13 -58 10 -7 -3 -13 -1 -13 5 0 13 -85 49
-114 49 -14 0 -32 12 -46 30 -12 16 -26 28 -30 25 -4 -2 -15 4 -25 15 -10 11
-26 20 -37 20 -17 0 -18 -12 -18 -191 l0 -191 44 6 c56 9 205 -10 272 -35 35
-12 68 -16 100 -13 86 9 134 4 192 -22 32 -14 87 -29 124 -34 68 -8 117 -36
127 -71 2 -7 11 -36 20 -64 8 -27 16 -84 16 -125 1 -41 5 -97 9 -123 6 -33 5
-52 -3 -60 -6 -6 -11 -21 -11 -34 0 -16 -4 -21 -15 -17 -9 4 -15 0 -15 -9 0
-9 -13 -25 -29 -36 -27 -20 -30 -20 -34 -4 -4 17 -5 17 -6 1 0 -10 -11 -28
-23 -40 -22 -22 -32 -23 -178 -24 -159 -2 -380 18 -460 41 -25 7 -64 16 -88
20 l-42 7 0 -151 c0 -94 4 -152 11 -156 5 -4 47 -6 92 -6 75 1 154 -18 202
-47 13 -8 65 -3 86 8 8 5 52 11 98 15 65 4 83 2 87 -9 3 -8 21 -17 40 -21 24
-4 38 -13 44 -29 5 -14 20 -25 38 -29 32 -7 41 -30 45 -117 1 -25 10 -56 19
-70 10 -13 18 -29 18 -35 0 -6 9 -16 20 -22 13 -9 19 -23 18 -46 -1 -19 2 -39
5 -44 4 -6 0 -16 -8 -23 -8 -7 -15 -9 -15 -4 0 4 -14 -8 -30 -26 -16 -18 -30
-39 -30 -46 0 -7 -11 -19 -24 -26 -81 -45 -78 -44 -186 -38 -58 4 -145 2 -195
-3 -110 -11 -248 -3 -298 18 l-37 15 1 -677 c1 -373 4 -667 9 -653 4 14 5 36
2 48 -2 13 1 41 8 62 13 38 13 38 79 44 36 4 102 4 146 0 44 -3 123 -7 175 -8
174 -4 314 -18 385 -39 83 -25 70 -21 123 -31 24 -4 46 -14 49 -22 3 -8 13
-14 22 -14 22 -1 61 -35 61 -53 0 -8 7 -20 14 -27 8 -6 20 -37 26 -68 6 -31
15 -66 19 -77 28 -68 39 -213 20 -275 -10 -32 -18 -39 -53 -50 -123 -37 -896
-11 -896 31 0 4 -16 11 -36 15 -20 4 -45 15 -56 26 -10 10 -22 17 -26 14 -9
-5 -46 41 -48 58 0 6 -4 18 -7 26 -3 8 -8 22 -10 30 -3 8 -6 -1442 -6 -3222
l-1 -3238 4470 0 4470 0 0 651 0 651 -32 -5 c-18 -4 -89 -11 -158 -17 -69 -6
-152 -15 -185 -20 -33 -5 -87 -12 -120 -15 -125 -11 -166 -16 -212 -26 -58
-13 -47 -12 -213 -9 -74 1 -155 -3 -180 -8 -54 -13 -421 -24 -503 -15 -40 4
-54 9 -48 17 9 11 5 115 -4 125 -3 2 -5 -18 -6 -45 0 -27 -4 -58 -9 -69 -6
-13 -8 2 -5 45 2 36 0 85 -5 110 -7 34 -5 48 6 60 12 13 14 13 14 0 0 -13 2
-13 9 -1 6 9 6 22 0 34 -6 11 -8 53 -4 105 7 85 17 122 35 122 5 0 16 12 24
28 8 15 15 21 16 13 0 -9 4 -10 13 -3 6 5 35 12 63 15 31 3 65 15 89 31 29 20
41 24 52 15 14 -12 264 -6 285 7 5 3 54 10 108 14 72 7 115 16 155 35 46 21
67 24 111 20 31 -3 63 -9 72 -14 10 -6 32 -4 60 4 49 15 160 13 457 -10 28 -2
65 -1 83 2 l32 5 0 103 c0 102 0 103 -25 109 -14 4 -29 5 -33 2 -25 -15 -920
-38 -1096 -27 -139 8 -172 7 -236 -5 -19 -4 -39 -8 -45 -9 -5 -1 -20 4 -32 12
-30 18 -35 16 -28 -7 12 -39 -5 -19 -35 39 -28 56 -29 61 -15 88 8 15 15 21
15 13 0 -8 3 -26 5 -40 5 -22 4 -22 -4 -5 -8 18 -10 18 -10 2 -1 -9 10 -23 24
-29 14 -6 25 -15 25 -20 0 -4 5 -8 11 -8 8 0 8 5 -1 15 -8 10 -10 30 -6 60 7
47 -4 60 -23 28 -6 -10 -11 -13 -11 -7 0 27 31 36 127 36 54 0 104 5 111 10
16 14 87 19 302 23 96 2 191 8 210 14 41 12 454 30 693 31 l77 0 0 48 c0 46
-1 47 -40 60 -56 17 -103 15 -147 -7 -33 -17 -70 -20 -278 -26 -269 -8 -591
-9 -647 -1 -21 3 -40 1 -44 -5 -12 -21 -385 1 -422 24 -7 5 -9 13 -6 19 5 7 0
9 -14 6 -18 -5 -22 -2 -22 15 0 18 2 19 10 7 8 -11 9 2 6 44 -3 37 0 70 8 91
11 25 11 36 3 44 -9 9 -4 18 18 36 31 25 39 26 220 30 47 1 100 8 127 19 42
15 62 16 173 6 109 -9 131 -9 177 6 29 9 58 21 64 25 6 5 46 6 90 2 43 -4 106
-7 139 -6 151 4 273 3 308 -3 48 -8 77 -50 77 -112 0 -62 26 -112 57 -112 31
0 83 30 83 47 0 7 4 13 9 13 5 0 13 14 16 32 l7 32 14 -25 c12 -22 13 -20 12
31 0 30 -3 45 -5 32 -6 -32 -28 -21 -26 13 3 34 11 44 23 25 6 -9 10 483 10
1294 0 1274 -1 1312 -20 1429 -12 66 -21 123 -22 126 0 3 0 50 1 103 1 88 3
97 21 103 19 6 20 13 18 108 -3 88 -5 102 -20 102 -22 0 -68 44 -68 65 0 10
-9 45 -20 79 -11 35 -19 72 -19 84 0 12 -5 49 -11 82 -6 33 -11 75 -11 94 1
18 -4 51 -9 72 -9 33 -8 43 7 64 16 21 25 24 83 22 l65 -2 3 82 3 82 -45 6
c-25 4 -57 4 -71 1 -33 -8 -83 18 -89 47 -29 144 -34 278 -11 310 8 12 15 31
15 43 0 25 -36 74 -55 74 -7 0 -16 13 -20 28 -8 38 -4 142 7 148 13 9 9 33 -9
52 -10 11 -26 34 -36 53 l-19 34 29 23 c22 18 37 22 70 19 60 -6 70 9 44 67
-11 25 -17 46 -13 46 4 0 2 4 -4 8 -7 4 -13 23 -15 42 -2 19 -7 40 -11 46 -19
27 -5 229 18 252 18 17 136 34 180 26 l34 -6 0 91 0 91 -32 1 c-18 1 -46 3
-63 6 -65 9 -94 6 -134 -15 -76 -40 -88 -25 -47 58 21 43 24 57 18 117 -3 37
-5 100 -5 138 1 39 2 87 2 107 0 21 12 60 26 87 24 48 26 50 80 56 30 4 78 8
105 8 l50 1 0 97 0 97 -76 7 c-42 4 -99 16 -127 26 -27 10 -53 16 -57 14 -19
-12 -29 22 -18 61 11 41 5 254 -11 331 -5 29 -5 48 3 57 16 20 78 29 189 27
l97 -3 0 215 0 214 -25 11 c-27 13 -32 27 -13 38 8 5 6 10 -8 15 -15 6 -12 8
14 8 l32 1 0 578 c0 503 -2 583 -16 610 -8 17 -20 60 -25 94 -6 35 -17 86 -24
113 -8 28 -16 100 -20 160 -6 115 -29 279 -45 330 -10 32 -17 77 -26 165 -3
30 -10 69 -15 86 -5 17 -7 38 -3 48 3 9 2 22 -3 29 -6 6 -11 44 -11 82 -2 92
-21 441 -30 531 -10 103 -33 127 -137 144 -166 27 -197 37 -410 126 -45 18
-113 40 -153 49 -82 17 -133 41 -177 82 -28 26 -35 28 -125 29 -52 1 -116 7
-142 14 -39 11 -60 11 -117 0 -54 -10 -79 -10 -116 -1 -103 26 -118 54 -135
246 -7 77 -17 145 -21 151 -11 14 -184 38 -200 29 -8 -5 -9 -45 -3 -144 11
-181 10 -192 -12 -205 -50 -29 -81 -35 -123 -20 -43 14 -223 21 -253 9 -25
-10 -22 -40 6 -63 18 -14 48 -21 108 -25 105 -8 170 -31 192 -68 22 -38 20
-105 -5 -145 -11 -19 -17 -39 -13 -45 9 -15 58 -4 93 22 25 18 42 21 108 20
43 -1 108 -2 146 -3 37 0 71 2 74 6 4 4 7 28 8 53 0 45 1 47 47 70 44 22 50
23 76 9 38 -20 55 -62 47 -118 -5 -35 -3 -48 13 -68 21 -27 44 -95 34 -104 -3
-3 -20 -6 -39 -6 -28 0 -37 6 -59 43 -29 46 -58 77 -72 77 -19 0 -42 -38 -42
-68 0 -21 7 -35 20 -42 11 -6 29 -28 40 -50 26 -51 58 -70 77 -44 7 10 13 24
13 31 0 22 25 14 56 -18 28 -29 29 -34 25 -107 -6 -128 -6 -134 22 -234 15
-54 27 -102 27 -107 0 -5 -14 -23 -31 -40 -22 -22 -40 -31 -64 -31 -28 0 -33
-3 -28 -17 3 -10 14 -26 25 -36 22 -22 23 -50 3 -67 -20 -17 -19 -27 4 -35 10
-3 37 -28 61 -56 41 -49 42 -51 51 -156 9 -102 8 -108 -13 -140 -17 -25 -30
-33 -53 -33 -77 -1 -95 -21 -62 -69 21 -31 24 -32 73 -27 51 6 52 5 68 -28 26
-54 24 -57 -51 -80 -17 -5 -31 4 -71 44 -47 48 -53 51 -86 44 -24 -4 -36 -2
-36 5 0 6 -20 20 -44 32 -24 11 -52 29 -62 40 -9 10 -23 19 -30 19 -8 0 -34
20 -58 45 -41 41 -76 58 -76 37 0 -18 60 -101 82 -113 55 -30 65 -56 38 -101
-10 -17 -16 -36 -13 -44 7 -20 -56 -27 -165 -18 -53 4 -99 8 -102 9 -39 11
-130 15 -178 8 -77 -12 -107 0 -146 55 -27 39 -28 43 -13 66 10 14 14 36 11
52 -13 76 -28 85 -38 23 -6 -37 -25 -69 -41 -69 -3 0 -19 -14 -35 -31 l-28
-31 -16 31 c-9 17 -29 39 -44 48 -15 10 -30 21 -33 26 -4 5 -16 4 -28 -2 -31
-17 -98 18 -137 71 -17 24 -45 89 -64 146 -28 90 -32 115 -31 195 1 54 8 104
16 122 8 16 16 40 18 53 2 12 9 28 15 34 19 19 14 27 -26 37 -33 9 -39 16 -49
52 -6 23 -10 61 -9 85 0 24 -3 44 -8 44 -5 0 -5 -29 -1 -67 11 -104 10 -132
-8 -213 -12 -51 -15 -94 -11 -141 4 -36 3 -97 -1 -135 -7 -61 -9 -66 -17 -41
-5 15 -16 27 -23 27 -24 0 -39 72 -40 190 0 63 -3 117 -7 120 -14 11 -38 231
-27 251 5 11 6 19 2 19 -4 0 -1 6 7 13 8 7 15 19 15 27 0 11 11 14 48 11 42
-2 47 0 47 19 0 26 -12 50 -56 107 -29 38 -35 42 -41 26 -3 -10 -13 -28 -21
-41 -14 -21 -16 -21 -33 -6 -26 24 -22 167 6 188 13 9 24 11 30 5 15 -14 35
-11 35 7 0 15 2 15 23 1 20 -13 24 -13 40 9 9 12 17 26 17 30 0 4 7 15 15 23
8 9 16 33 18 54 5 46 12 54 32 37 11 -9 14 -22 10 -44 -3 -17 -3 -26 2 -21 15
19 58 17 78 -5 44 -48 62 7 26 78 -30 58 -56 78 -86 64 -63 -29 -111 17 -81
77 23 43 64 52 150 30 36 -9 49 -8 75 5 35 19 38 31 15 64 -22 32 -56 47 -199
87 -140 40 -137 40 -280 -5 -49 -15 -129 -40 -176 -55 -122 -38 -155 -72 -152
-160 5 -150 18 -314 33 -415 30 -198 40 -289 56 -504 8 -110 19 -246 24 -301
13 -140 11 -303 -4 -345 -7 -20 -24 -40 -38 -48 -38 -18 -269 -35 -304 -22
-15 6 -46 8 -68 5 -64 -9 -296 47 -373 91 -60 33 -177 74 -214 74 -44 0 -79
48 -79 109 0 15 -4 31 -9 37 -11 12 -29 126 -41 270 -5 65 -14 148 -19 184 -6
36 -15 135 -21 220 -13 191 -27 326 -45 450 -8 52 -19 151 -25 220 -6 69 -20
175 -31 235 -10 61 -19 143 -19 183 0 64 -3 76 -25 97 l-24 25 -238 -1 c-183
-1 -228 -3 -193 -11 42 -9 61 -26 66 -55 1 -7 -2 -13 -6 -13 -5 0 -15 -6 -22
-13 -23 -23 -97 -47 -145 -47 -43 0 -51 4 -95 51 -26 27 -50 59 -53 70 -5 16
-16 19 -67 19 -59 0 -60 -1 -45 -18 10 -10 17 -23 17 -29 0 -5 9 -18 20 -28
11 -10 20 -23 20 -29 0 -6 17 -34 38 -61 53 -70 55 -77 57 -195 1 -58 5 -135
10 -171 9 -83 -4 -94 -39 -35 -42 72 -72 102 -122 121 -38 15 -51 16 -67 6
-16 -10 -22 -10 -33 1 -12 12 -11 17 2 37 13 18 18 20 25 10 6 -10 9 -8 9 7 0
12 7 27 15 34 18 15 20 61 3 78 -7 7 -20 12 -30 12 -10 0 -18 4 -18 10 0 5 -7
7 -16 3 -8 -3 -33 -43 -55 -89 -21 -46 -43 -84 -49 -84 -20 0 -9 -16 24 -34
20 -11 39 -31 45 -47 7 -19 23 -34 48 -45 96 -40 108 -50 119 -96 7 -26 9 -70
5 -104 -6 -55 -8 -59 -34 -62 -20 -2 -39 6 -69 32 -23 20 -47 35 -52 33 -6 -2
-17 -17 -25 -33 -8 -16 -19 -32 -25 -37 -18 -12 -98 -4 -103 11 -7 18 41 67
68 69 33 3 45 19 44 64 0 62 -19 69 -99 41 -80 -27 -85 -27 -95 0 -10 29 4 80
36 131 21 34 24 48 19 86 -3 25 -14 53 -24 62 -23 23 -72 33 -72 16 0 -7 -13
-28 -29 -47 -25 -30 -30 -33 -45 -21 -9 8 -19 11 -23 7 -3 -3 -1 -6 4 -6 8 0
8 -8 1 -28 -9 -23 -6 -40 21 -102 18 -41 36 -83 41 -92 12 -22 -5 -54 -32 -61
-23 -7 -23 -34 2 -93 26 -60 27 -112 5 -191 -17 -61 -17 -62 3 -88 20 -25 20
-27 4 -73 -9 -25 -33 -62 -53 -82 -19 -19 -38 -43 -42 -52 -4 -12 -23 -19 -65
-24 -84 -9 -90 -15 -67 -57 17 -33 20 -34 49 -25 17 6 58 14 91 20 70 11 88
24 63 42 -18 13 -26 42 -9 31 5 -3 12 -1 15 4 3 5 15 7 25 4 22 -5 35 -43 21
-57 -10 -10 -2 -91 12 -119 13 -26 -8 -74 -35 -81 -12 -3 -55 -6 -95 -6 -70 0
-74 1 -105 35 -17 19 -38 35 -45 35 -7 0 -11 4 -8 8 2 4 1 14 -5 22 -7 13 -9
12 -9 -2 0 -15 -14 -17 -111 -17 -112 -1 -139 -8 -139 -38 0 -13 -10 -14 -54
-9 -130 17 -230 16 -278 -1 -26 -9 -45 -20 -42 -25 3 -4 1 -8 -4 -8 -6 0 -12
7 -16 15 -3 8 -12 15 -21 15 -9 0 -39 15 -68 33 -48 31 -57 33 -112 29 -100
-8 -122 -6 -140 11 -17 18 -26 21 -119 37 -44 7 -67 18 -88 39 -21 22 -45 32
-95 42 -37 8 -74 20 -81 29 -7 8 -33 37 -56 63 -24 26 -48 64 -54 85 -6 20
-23 75 -37 122 -15 47 -30 120 -32 162 -5 73 -4 78 22 104 28 28 28 29 16 88
-15 74 -12 146 5 139 12 -4 23 34 16 56 -3 8 -8 6 -18 -8 -19 -26 -53 -23 -60
6 -4 13 -10 23 -15 23 -5 0 -9 5 -9 11 0 7 -10 20 -21 30 -19 16 -20 25 -14
66 13 90 7 162 -20 220 -14 31 -25 68 -25 84 l0 29 -261 0 -262 0 6 -37z
m7432 -693 c3 -11 11 -20 16 -20 5 0 9 -10 9 -23 0 -21 -3 -23 -42 -17 -24 3
-52 10 -63 17 -20 11 -19 12 4 37 29 31 67 34 76 6z m235 -96 c41 -21 39 -48
-8 -78 -44 -28 -68 -33 -99 -23 -42 15 -72 87 -45 113 18 19 103 12 152 -12z
m-4610 -56 c0 -29 -17 -96 -32 -125 -7 -14 -24 -25 -44 -29 -18 -3 -46 -17
-61 -30 -52 -46 -93 -39 -125 19 -11 21 16 72 33 62 5 -4 12 1 15 9 3 9 13 16
22 16 25 0 101 40 135 71 38 35 57 37 57 7z m4295 -68 c3 -5 1 -10 -4 -10 -6
0 -11 5 -11 10 0 6 2 10 4 10 3 0 8 -4 11 -10z m31 -48 c6 -12 14 -19 17 -15
4 3 7 -1 7 -10 0 -19 16 -23 22 -5 7 19 62 -11 81 -44 15 -26 15 -28 -6 -43
-23 -16 -38 -20 -34 -7 1 4 -8 20 -19 35 -32 40 -58 27 -51 -26 3 -22 11 -43
17 -47 8 -5 3 -14 -16 -29 -24 -19 -30 -20 -48 -8 -25 17 -33 62 -15 84 8 8
19 32 26 51 10 30 10 39 -2 52 -8 9 -15 22 -15 29 0 19 23 8 36 -17z m-4246
-145 c0 -19 -52 -86 -67 -87 -6 0 -13 -5 -15 -10 -4 -14 -58 -23 -58 -10 0 5
6 10 14 10 8 0 17 8 21 18 4 13 90 90 103 92 1 0 2 -6 2 -13z m-445 -37 c3 -5
1 -10 -4 -10 -6 0 -11 5 -11 10 0 6 2 10 4 10 3 0 8 -4 11 -10z m4782 -207
c-3 -10 -5 -4 -5 12 0 17 2 24 5 18 2 -7 2 -21 0 -30z m-142 -3 c10 -16 -5
-50 -21 -50 -8 0 -14 6 -14 14 0 8 -3 21 -6 30 -4 11 0 16 14 16 12 0 24 -5
27 -10z m-3635 -29 c0 -22 -16 -36 -24 -22 -8 12 3 41 15 41 5 0 9 -9 9 -19z
m4357 -11 c14 -27 18 -90 6 -90 -5 0 -18 8 -30 18 -19 15 -29 55 -24 95 2 17
36 1 48 -23z m-5099 -14 c-7 -8 -15 -12 -17 -11 -5 6 10 25 20 25 5 0 4 -6 -3
-14z m-1344 -121 c3 -8 13 -15 23 -15 11 -1 6 -6 -13 -14 -28 -12 -103 -12
-141 -1 -17 6 -6 33 15 38 43 11 110 7 116 -8z m254 -1 c27 -8 29 -34 3 -34
-11 0 -22 -4 -25 -9 -4 -5 -14 -8 -24 -6 -9 2 -24 4 -32 4 -13 1 -13 2 0 11
12 8 9 10 -12 10 -39 0 -44 18 -6 23 57 7 72 7 96 1z m5610 -80 c-3 -41 -30
-66 -49 -47 -9 9 -6 20 11 47 28 46 42 46 38 0z m-6066 -228 c24 -8 50 -14 58
-15 45 -2 139 -25 217 -52 48 -17 124 -36 167 -41 44 -5 94 -15 113 -23 19 -8
33 -10 33 -4 0 6 6 7 16 1 9 -5 33 -6 53 -2 56 10 183 -6 193 -25 5 -8 17 -15
26 -16 13 0 12 -4 -7 -17 -18 -12 -42 -16 -103 -13 -44 1 -93 7 -110 12 -19 5
-36 5 -42 0 -6 -5 -58 -10 -116 -10 -58 0 -141 -5 -185 -10 -107 -14 -420 -15
-520 -1 -83 12 -249 48 -347 77 -73 20 -103 50 -89 86 19 49 45 56 180 54 68
-2 144 0 170 4 87 12 249 9 293 -5z m6110 -51 c0 -5 -5 -11 -11 -13 -6 -2 -11
4 -11 13 0 9 5 15 11 13 6 -2 11 -8 11 -13z m-6892 -25 c22 -42 -29 -88 -69
-63 -24 15 -24 36 -1 65 22 29 54 28 70 -2z m1853 -101 c20 -5 37 -14 37 -19
0 -6 14 -10 32 -10 51 0 28 -7 -47 -14 -43 -4 -65 -3 -57 2 11 7 9 10 -7 15
-22 5 -29 37 -8 37 6 0 29 -5 50 -11z m4071 -218 c4 -5 0 -12 -6 -14 -7 -3 -3
-6 10 -6 12 -1 22 -5 22 -11 0 -6 -30 -10 -70 -10 -38 0 -70 2 -70 4 0 2 -3
11 -6 20 -4 11 3 16 33 19 72 7 82 7 87 -2z m-6719 -92 c3 -3 0 -11 -8 -17 -9
-8 -25 -7 -57 4 -61 21 -61 24 3 21 31 -1 58 -5 62 -8z m6535 -278 c0 -9 30
-22 60 -26 8 -1 29 -8 45 -15 17 -6 63 -17 103 -23 39 -5 72 -14 72 -19 0 -4
-3 -8 -7 -9 -21 -1 -166 -19 -223 -28 -90 -13 -307 -7 -350 10 -20 8 -49 22
-64 33 l-29 18 66 23 c36 13 74 28 84 34 22 13 243 15 243 2z m-795 -28 c3
-36 -39 -68 -86 -67 -59 2 -69 17 -34 54 15 16 32 27 36 24 4 -2 11 1 14 6 4
6 21 10 38 8 23 -2 31 -8 32 -25z m-4466 -341 c28 -29 39 -98 19 -124 -11 -15
-18 -15 -50 -5 -37 12 -37 12 -54 95 -2 13 3 36 13 52 18 32 24 31 72 -18z
m-550 -42 c25 -13 26 -23 5 -45 -26 -25 -35 -14 -39 45 -2 38 -1 48 5 33 5
-12 18 -27 29 -33z m273 -98 c1 -40 2 -42 5 -12 7 56 23 61 23 7 0 -26 -5 -47
-10 -47 -6 0 -5 -13 3 -32 19 -47 5 -87 -28 -80 -42 8 -48 25 -30 87 9 31 13
65 10 76 -8 24 3 61 16 54 5 -4 10 -27 11 -53z m3458 -31 c74 -11 156 -19 182
-19 27 1 51 -2 55 -5 3 -4 23 -7 43 -7 26 0 43 -7 60 -25 13 -14 29 -25 36
-25 7 0 20 -7 29 -17 12 -12 36 -17 91 -17 43 -1 79 -7 86 -14 6 -6 22 -12 35
-12 13 0 23 -4 23 -9 0 -4 17 -28 38 -52 65 -77 67 -85 33 -120 -27 -26 -35
-29 -68 -24 -21 4 -70 22 -109 41 -67 33 -95 37 -120 21 -25 -15 -267 1 -317
21 -16 7 -43 12 -61 12 -17 0 -36 4 -41 8 -6 5 -41 14 -79 21 -93 16 -196 51
-196 66 0 7 -8 23 -18 36 -9 13 -16 31 -16 39 1 8 2 27 3 42 2 61 85 71 311
39z m-3654 -111 c53 -103 73 -148 67 -153 -3 -3 4 -19 16 -35 11 -16 18 -32
14 -36 -3 -3 -1 -6 6 -6 9 0 12 -13 10 -44 -2 -24 -1 -42 4 -39 4 2 7 19 7 38
0 19 5 37 10 40 6 4 7 11 4 17 -4 7 4 8 25 3 18 -4 31 -3 31 3 0 13 78 -7 107
-27 12 -9 23 -23 23 -32 0 -9 7 -22 15 -29 9 -7 28 -40 44 -74 15 -34 46 -79
67 -101 42 -42 64 -83 64 -115 0 -11 4 -20 8 -20 5 0 8 -16 8 -35 -1 -19 -5
-35 -10 -35 -4 0 -6 13 -4 30 4 28 3 29 -12 15 -16 -14 -18 -13 -29 12 -12 31
-90 88 -133 98 -27 7 -138 106 -138 124 0 6 -8 8 -17 4 -10 -3 -15 -3 -11 2
12 12 -12 47 -28 41 -8 -3 -14 1 -14 10 0 8 -5 12 -11 8 -18 -11 -1 -116 32
-196 17 -40 37 -93 46 -118 8 -25 24 -54 34 -66 11 -12 24 -38 30 -58 5 -20
14 -36 19 -36 6 0 10 -6 10 -14 0 -7 7 -19 15 -26 8 -7 15 -24 15 -39 1 -35
39 -58 170 -100 58 -18 114 -37 125 -42 11 -4 58 -15 105 -24 78 -15 139 -34
181 -55 9 -5 38 -11 65 -15 27 -4 60 -9 74 -11 36 -5 151 -64 157 -80 3 -8 12
-14 19 -14 12 0 13 -12 8 -64 -5 -49 -3 -71 10 -96 9 -18 16 -39 16 -45 0 -7
7 -18 15 -25 22 -18 19 -29 -10 -36 -14 -3 -23 -10 -20 -14 3 -5 -61 -7 -142
-4 -133 3 -198 8 -198 13 0 7 -58 13 -203 21 -89 5 -166 11 -171 14 -4 3 -39
10 -76 16 -38 6 -74 15 -80 20 -6 5 -49 12 -97 16 l-86 7 -37 -36 c-22 -22
-38 -48 -42 -70 -9 -58 8 -76 125 -132 21 -10 72 -17 154 -20 114 -4 218 -12
468 -35 58 -5 148 -12 200 -16 147 -8 453 -34 470 -39 20 -6 296 -37 477 -54
44 -4 87 -12 95 -17 7 -5 39 -18 71 -29 33 -11 57 -24 57 -32 0 -17 24 -43 39
-43 6 0 15 -9 21 -21 9 -16 14 -18 26 -8 11 9 14 9 14 0 0 -7 5 -9 10 -6 6 3
10 -2 10 -11 0 -10 6 -25 14 -33 7 -9 27 -52 45 -96 18 -44 36 -89 40 -100 15
-34 50 -196 57 -260 4 -33 11 -68 15 -77 5 -9 12 -63 15 -120 3 -57 10 -141
15 -188 6 -47 13 -110 16 -140 3 -30 9 -59 13 -65 4 -5 11 -28 14 -49 6 -29
10 -36 17 -25 6 11 13 11 26 3 31 -19 27 -51 -9 -84 l-33 -31 0 -192 c-1 -185
-16 -317 -37 -317 -5 0 -4 -9 2 -19 18 -34 11 -50 -32 -72 -24 -12 -57 -32
-74 -45 -17 -13 -40 -24 -51 -24 -30 0 -92 -74 -120 -143 -22 -55 -45 -97 -31
-56 5 13 -7 15 -91 14 -53 -1 -102 -3 -109 -3 -24 -3 -29 -47 -21 -172 4 -69
10 -192 14 -275 3 -82 8 -168 10 -190 1 -22 -4 -73 -13 -112 -12 -56 -21 -76
-40 -89 -13 -9 -22 -12 -19 -7 10 15 -14 93 -28 93 -29 0 -120 -25 -127 -34
-4 -6 -11 -6 -20 1 -7 6 -22 9 -33 6 -11 -2 -40 -5 -65 -7 -77 -7 -76 0 -51
-369 22 -326 28 -359 66 -373 8 -3 11 -13 8 -22 -3 -9 4 -3 16 13 11 17 21 26
21 22 0 -16 -31 -82 -47 -99 -9 -10 -13 -21 -10 -25 4 -3 1 -16 -6 -27 -12
-18 -29 -66 -24 -66 8 0 102 52 125 68 44 32 76 42 196 62 l108 18 111 -39
c121 -42 140 -45 198 -28 37 11 44 29 13 29 -8 0 -13 -4 -10 -9 3 -5 -5 -8
-18 -7 -13 0 -24 3 -24 6 1 3 -4 17 -10 33 -12 28 -26 35 -37 17 -3 -5 1 -10
9 -10 16 0 21 -12 11 -22 -9 -8 -183 33 -215 51 -21 12 -139 4 -156 -10 -9 -7
-31 -9 -58 -6 -38 5 -46 3 -65 -19 -13 -15 -28 -23 -37 -20 -9 3 -12 1 -9 -4
3 -6 2 -10 -4 -10 -6 0 -20 -10 -31 -22 l-21 -23 -19 25 c-19 25 -19 25 3 48
12 13 33 30 47 37 14 7 43 29 64 48 46 43 120 64 236 69 83 3 85 3 83 -20 -3
-20 0 -21 17 -12 22 12 90 -11 90 -30 0 -6 4 -8 10 -5 5 3 8 0 5 -7 -3 -8 8
-19 27 -27 18 -7 47 -20 63 -27 17 -7 50 -19 75 -28 30 -9 45 -20 44 -30 -1
-9 2 -16 7 -16 5 0 9 -5 9 -11 0 -6 -7 -8 -16 -5 -9 4 -13 2 -8 -5 5 -8 -3
-10 -25 -7 -32 5 -34 2 -34 -44 0 -19 -9 -21 -97 -19 -61 1 -194 24 -186 31 4
5 -45 8 -149 9 -58 1 -156 -18 -150 -29 3 -5 -2 -11 -11 -14 -9 -4 -13 -2 -8
5 4 7 1 10 -7 7 -8 -3 -13 -10 -12 -16 2 -7 -4 -9 -14 -5 -12 5 -14 3 -8 -7 6
-10 4 -12 -10 -7 -10 5 -31 0 -50 -12 -30 -17 -34 -18 -48 -3 -15 14 -19 10
-47 -49 -16 -35 -30 -71 -30 -79 0 -15 -64 -122 -134 -223 l-38 -56 -4 -133
c-2 -73 -5 -143 -5 -155 -1 -13 -5 -23 -11 -23 -5 0 -9 12 -8 28 3 40 -1 69
-7 55 -2 -7 -8 -13 -13 -13 -14 0 -20 48 -9 74 9 19 9 39 0 83 -13 62 -15 74
-31 168 -16 94 -17 101 -35 260 -9 83 -22 161 -29 175 -12 25 -14 25 -161 31
-206 7 -192 24 -177 -223 18 -283 31 -451 37 -469 9 -27 55 -39 130 -35 129 6
239 -28 211 -65 -21 -29 -52 -37 -171 -44 -66 -4 -127 -11 -136 -16 -22 -11
-32 -65 -30 -169 2 -101 -15 -93 -25 13 -4 37 -11 70 -15 73 -5 3 -9 14 -9 24
0 10 -15 34 -32 54 l-33 34 -100 0 c-65 0 -100 3 -103 11 -2 6 -10 11 -18 11
-9 0 -12 -4 -9 -10 3 -5 2 -10 -4 -10 -24 0 -18 20 10 34 21 11 59 16 111 16
76 0 80 1 107 31 27 29 28 35 25 112 -2 83 -11 219 -19 292 -2 22 -11 101 -19
175 -8 74 -15 140 -15 146 -1 6 -14 17 -31 24 -29 12 -60 14 -180 10 -64 -2
-110 13 -110 35 0 22 35 32 120 35 64 2 93 4 142 9 11 1 43 64 39 76 -2 6 -8
62 -12 125 -23 334 -40 493 -55 521 -16 31 -49 50 -73 41 -7 -3 -17 1 -22 9
-6 10 -9 10 -9 2 0 -13 -61 -9 -112 7 -17 6 -28 5 -28 -1 0 -5 -9 -9 -20 -9
-11 0 -20 3 -20 8 0 9 16 34 21 32 2 -1 17 3 32 9 16 6 49 11 75 11 150 0 158
12 142 208 -16 210 -49 482 -61 514 -14 34 -18 35 -136 44 -125 8 -143 21
-143 104 0 34 -6 64 -15 77 -15 21 -26 96 -23 158 2 41 1 75 -1 105 -1 14 0
34 2 45 3 11 6 23 6 28 1 4 8 7 16 7 8 0 15 5 15 10 0 6 43 10 110 10 93 0
112 3 117 16 5 14 -11 361 -22 469 -2 22 -7 75 -11 119 -5 59 -12 84 -29 103
-20 25 -27 26 -136 29 -122 3 -139 -3 -139 -43 0 -32 -56 -87 -92 -89 -19 -1
-36 9 -60 35 -40 42 -54 71 -34 71 15 0 21 33 32 183 5 75 4 94 -12 122 -13
25 -15 39 -8 57 6 13 7 63 4 118 -4 57 -2 100 4 108 7 9 6 16 -3 22 -8 4 -11
16 -7 28 4 12 0 34 -9 53 -14 26 -15 33 -3 40 10 7 8 9 -7 10 l-20 0 20 9 c14
6 15 9 5 9 -10 1 -17 12 -18 34 -1 17 -9 37 -17 43 -8 6 -15 19 -15 28 0 9 -4
16 -10 16 -5 0 -10 8 -10 19 0 10 -11 26 -25 35 -14 9 -25 23 -25 32 0 8 -4
12 -10 9 -6 -3 -10 4 -11 17 0 13 -2 32 -4 43 -2 11 -7 35 -10 53 -3 17 -10
32 -15 32 -6 0 -10 6 -10 13 0 7 -5 18 -11 24 -7 7 -12 59 -14 125 -3 86 -8
127 -25 172 -17 45 -21 69 -15 105 4 25 7 52 8 59 0 8 11 19 24 25 13 5 23 14
23 18 0 4 14 10 30 14 37 8 50 31 50 84 0 42 26 81 54 81 11 0 12 8 6 33 -16
67 -16 67 -118 98 -52 15 -60 28 -71 119 -10 79 -19 95 -84 162 -24 25 -47 59
-50 74 -6 35 12 130 56 294 19 69 37 136 41 150 9 38 63 70 115 67 41 -2 45
-5 67 -47z m5015 -253 c9 -7 20 -23 24 -37 4 -13 14 -30 22 -38 10 -11 11 -17
2 -28 -6 -8 -9 -20 -6 -27 6 -16 -23 -44 -50 -48 -47 -8 -96 68 -73 112 6 10
10 26 10 36 0 38 39 55 71 30z m-2313 -92 c2 -11 11 -28 21 -39 12 -14 16 -40
17 -108 1 -58 6 -93 14 -98 8 -5 7 -9 -5 -14 -9 -3 -13 -11 -9 -18 5 -8 0 -9
-17 -5 -13 4 -27 7 -31 7 -5 0 -9 17 -9 38 -1 26 -3 30 -6 12 -2 -14 -15 -57
-29 -97 -13 -39 -24 -78 -24 -87 0 -10 -16 -19 -42 -26 -63 -16 -128 -44 -128
-54 0 -16 -34 -86 -41 -86 -4 0 -15 -7 -24 -16 -12 -13 -19 -14 -28 -5 -6 6
-19 11 -29 11 -24 0 -39 39 -26 65 6 11 24 32 40 48 16 15 45 58 64 96 19 38
41 72 49 75 8 3 15 12 15 20 0 8 9 18 20 21 11 4 31 28 45 53 13 26 24 41 25
33 0 -10 3 -11 14 -2 11 9 15 9 19 -1 3 -7 6 3 6 23 1 24 7 39 17 43 13 5 14
9 5 20 -11 13 -9 62 5 104 7 22 68 11 72 -13z m4818 -102 c-10 -10 -19 5 -10
18 6 11 8 11 12 0 2 -7 1 -15 -2 -18z m-4275 1 c31 -10 74 -15 144 -13 55 1
134 -4 175 -11 41 -7 95 -14 120 -16 25 -1 83 -10 130 -19 47 -8 126 -20 175
-25 50 -6 135 -22 190 -37 55 -14 115 -28 133 -31 17 -2 32 -7 32 -11 0 -4 19
-7 43 -8 103 -4 146 -14 153 -36 9 -28 6 -101 -7 -167 -5 -30 -13 -73 -17 -95
-4 -22 -2 -84 4 -139 8 -74 7 -99 -2 -103 -6 -2 -63 -5 -127 -6 -63 -1 -113
-5 -110 -10 2 -4 9 -4 15 -1 6 4 8 2 4 -4 -4 -7 -17 -8 -39 -1 -43 12 -45 11
-21 -9 11 -9 25 -25 30 -34 5 -9 42 -55 83 -102 56 -65 79 -86 98 -86 19 0 24
-4 19 -16 -3 -8 -2 -12 4 -9 5 3 8 19 6 36 -3 24 -1 27 10 18 8 -6 14 -17 14
-23 1 -21 36 -86 43 -79 4 3 7 -1 7 -9 0 -9 -5 -18 -12 -20 -9 -3 -6 -19 10
-58 12 -29 22 -60 22 -70 0 -9 9 -28 21 -41 11 -13 29 -35 38 -48 15 -20 19
-21 24 -7 4 9 2 16 -4 16 -6 0 -7 5 -4 10 4 6 10 8 15 5 5 -3 7 5 4 17 -2 13
1 35 7 49 8 22 19 27 57 32 26 4 57 9 69 13 17 5 30 -1 52 -25 36 -39 42 -39
35 -1 -4 19 -2 30 5 30 26 0 8 18 -31 31 l-43 14 43 3 c41 3 53 14 30 28 -8 5
-7 10 3 18 20 15 41 88 29 100 -7 7 -14 6 -22 -2 -8 -8 -17 -6 -36 8 -14 11
-34 20 -46 20 -48 0 -85 67 -71 128 8 36 -20 167 -42 197 -10 14 -27 25 -38
25 -27 1 -66 35 -68 60 -1 11 -5 20 -9 20 -4 0 -8 11 -8 24 0 13 -7 26 -15 30
-18 7 -19 24 -2 77 9 31 21 45 50 60 20 11 37 25 37 32 0 7 11 24 25 39 14 15
25 34 25 42 0 21 19 30 35 16 8 -7 15 -9 15 -5 0 4 16 -12 35 -35 60 -72 118
-103 159 -85 11 5 26 4 37 -3 14 -9 19 -8 22 6 3 12 5 11 6 -5 0 -13 6 -23 12
-23 6 0 9 -19 7 -47 l-3 -48 -44 0 c-29 0 -46 -5 -49 -14 -4 -11 -6 -11 -13 0
-5 9 -9 -14 -9 -58 0 -42 4 -73 10 -73 6 0 10 -7 10 -15 0 -8 17 -44 38 -80
20 -37 43 -76 49 -88 7 -12 13 -18 13 -14 0 12 23 -14 38 -43 7 -14 23 -45 37
-70 13 -25 25 -52 25 -60 0 -17 52 -53 90 -64 14 -4 82 -32 151 -62 70 -30
142 -57 160 -60 19 -4 50 -16 69 -27 45 -27 130 -108 130 -124 0 -7 5 -13 10
-13 6 0 10 -7 10 -15 0 -9 6 -18 14 -21 17 -7 38 -62 29 -77 -4 -6 -1 -7 6 -2
9 5 12 2 9 -11 -3 -14 -11 -18 -32 -16 -16 2 -33 -2 -37 -9 -6 -10 -13 -11
-31 -1 -35 17 -176 34 -328 38 -199 5 -248 14 -279 50 -25 28 -39 31 -37 7 1
-15 -6 -17 -43 -15 -52 4 -79 -8 -137 -65 -24 -24 -48 -43 -55 -43 -7 0 -4 -9
7 -21 10 -12 17 -23 14 -25 -3 -2 7 -20 23 -38 22 -29 27 -45 27 -90 0 -43 -3
-56 -15 -56 -8 0 -15 -4 -15 -10 0 -5 9 -10 20 -10 11 0 20 -4 20 -9 0 -16
-27 -31 -44 -25 -18 7 -21 -7 -5 -23 8 -8 8 -13 0 -17 -6 -4 -11 0 -11 8 0 9
-4 16 -10 16 -5 0 -11 10 -11 23 -1 14 -3 16 -6 6 -7 -26 15 -69 35 -69 10 0
23 -5 30 -12 6 -6 15 -8 19 -4 4 4 1 11 -7 16 -9 6 -10 10 -3 10 6 0 15 -5 18
-10 4 -6 16 -9 28 -6 14 3 12 1 -5 -6 -69 -29 -23 -46 53 -20 29 10 37 18 37
38 0 22 -4 25 -23 21 -16 -3 -22 0 -18 10 3 7 8 13 12 13 4 0 13 16 21 35 27
70 44 77 177 76 168 -1 492 -21 528 -31 17 -5 53 -12 80 -15 28 -4 61 -9 75
-11 14 -2 63 -8 110 -13 47 -5 98 -14 114 -20 15 -6 69 -14 120 -17 50 -3 100
-9 111 -14 11 -5 36 -11 55 -14 71 -11 86 -15 123 -31 31 -13 37 -20 32 -36
-4 -11 0 -30 9 -44 16 -24 15 -24 -17 -29 -17 -3 -74 -7 -125 -10 -59 -4 -101
-11 -115 -21 -12 -8 -36 -15 -54 -15 -32 0 -40 3 -89 28 -12 6 -67 12 -123 13
-92 2 -104 1 -123 -18 -25 -25 -25 -48 -5 -173 17 -100 23 -151 32 -265 13
-155 15 -165 50 -201 19 -20 43 -34 57 -34 18 0 20 2 8 10 -12 8 -10 10 11 10
14 0 34 -7 45 -15 10 -8 27 -15 37 -15 9 0 17 -5 17 -11 0 -7 -10 -9 -25 -7
-14 3 -25 1 -25 -3 0 -5 -26 -9 -58 -9 -55 0 -58 -1 -75 -34 -18 -31 -18 -41
-3 -187 8 -85 20 -208 27 -274 10 -114 25 -165 51 -181 7 -4 32 -7 57 -6 26 1
75 -2 111 -7 50 -6 70 -5 85 5 11 8 27 14 37 14 9 0 23 7 32 15 12 12 17 13
23 3 20 -31 60 -43 190 -53 69 -6 73 -5 89 20 9 14 14 35 11 47 -3 13 -18 138
-32 278 -14 140 -31 267 -37 282 -13 36 -36 42 -136 39 -59 -1 -92 -7 -113
-20 -30 -18 -31 -18 -78 7 -27 13 -54 35 -60 49 -13 29 -14 85 -2 99 5 5 5 86
-2 198 -8 143 -8 193 1 207 7 10 12 27 12 36 1 17 1 17 14 1 7 -10 16 -15 19
-12 3 4 9 -7 12 -22 3 -16 10 -45 15 -64 6 -19 15 -98 21 -175 17 -214 23
-224 161 -236 140 -12 131 -32 132 308 1 211 4 284 14 301 10 18 11 26 1 38
-9 11 -7 14 12 14 42 0 68 -12 74 -31 4 -11 10 -17 15 -14 4 3 11 -7 14 -21 4
-15 17 -41 30 -58 27 -37 43 -76 55 -136 35 -176 50 -263 56 -315 3 -33 10
-82 15 -110 6 -27 14 -126 19 -220 6 -93 15 -192 20 -220 18 -83 20 -322 4
-353 -20 -38 -20 -94 -1 -134 20 -39 45 -127 53 -183 3 -22 10 -67 15 -100 5
-33 16 -132 25 -220 9 -88 22 -196 30 -240 7 -44 17 -143 20 -220 3 -77 11
-160 16 -185 5 -25 14 -108 19 -185 20 -282 49 -569 100 -980 11 -88 29 -250
40 -360 11 -110 24 -227 30 -260 16 -97 23 -220 16 -269 -9 -57 -39 -76 -106
-69 -49 5 -121 -14 -128 -34 -2 -7 4 -13 14 -13 10 0 36 -9 58 -19 23 -10 70
-26 106 -35 73 -18 102 -43 73 -63 -9 -7 -23 -13 -31 -13 -11 0 -13 -9 -9 -39
2 -21 1 -44 -4 -52 -4 -7 -3 -19 2 -25 15 -19 -45 -43 -116 -48 -33 -2 -71 -7
-85 -11 -14 -3 -59 -8 -100 -10 -41 -3 -82 -6 -90 -7 -8 -1 -49 1 -90 5 -41 4
-145 9 -230 10 -123 3 -161 7 -185 20 -16 9 -42 17 -57 17 -15 0 -30 5 -33 10
-3 5 -1 10 6 10 9 0 10 3 3 10 -6 6 -51 13 -101 15 -60 3 -106 11 -135 24 -23
10 -77 26 -118 35 -41 9 -82 24 -92 33 -11 10 -18 12 -18 5 0 -7 -4 -12 -8
-12 -9 0 -54 101 -48 107 2 2 9 -10 16 -27 10 -24 15 -28 27 -19 11 10 12 8 7
-7 -7 -19 -7 -19 14 0 14 12 22 14 22 7 0 -8 5 -7 16 3 8 9 25 16 37 16 12 0
35 7 51 15 16 9 36 13 44 10 7 -3 22 1 33 8 18 13 17 14 -10 35 -15 11 -54 25
-86 31 -32 6 -60 13 -62 15 -10 9 50 36 95 42 28 3 64 15 81 25 26 16 31 25
31 57 0 22 -5 64 -11 93 -11 55 -16 99 -44 339 -9 74 -25 185 -36 245 -10 61
-23 167 -29 237 -5 69 -16 168 -25 220 -8 51 -15 121 -15 154 0 34 -7 81 -16
105 -11 30 -17 84 -19 169 -2 109 -8 174 -30 345 -3 22 -8 83 -11 135 -5 70
-12 104 -26 128 -23 37 -26 83 -10 123 6 16 7 42 2 70 -5 24 -13 105 -19 179
-11 130 -27 290 -37 358 -5 35 -39 58 -60 41 -8 -7 -13 6 -18 43 -8 72 -17
233 -20 348 -2 85 -1 91 9 51 10 -42 11 -43 22 -20 19 40 23 86 12 141 -6 29
-12 69 -14 88 -3 32 -19 159 -46 360 -12 92 -27 117 -76 125 -111 17 -153 29
-153 41 0 8 8 14 18 14 14 0 15 2 2 10 -10 7 9 10 62 10 71 0 78 2 97 27 12
14 19 33 16 42 -2 9 -11 90 -20 181 -8 91 -24 198 -34 238 -11 40 -18 79 -15
86 9 24 -14 54 -53 67 -64 22 -73 19 -106 -43 -35 -63 -49 -73 -18 -12 28 56
34 81 19 81 -7 0 -30 3 -50 7 -23 3 -38 2 -38 -4 0 -6 -10 -15 -22 -21 -26
-11 -35 -59 -11 -59 8 0 12 -4 8 -9 -3 -5 -1 -13 5 -16 6 -4 1 -14 -12 -25
l-23 -19 30 -1 c22 0 26 -3 17 -12 -20 -20 -14 -38 12 -38 15 0 26 7 29 18 3
10 5 6 6 -11 0 -16 5 -26 9 -23 4 2 14 1 22 -5 11 -6 8 -9 -12 -9 -19 0 -28
-5 -28 -16 0 -9 -9 -18 -21 -21 -12 -3 -18 -11 -15 -19 3 -8 2 -14 -3 -14 -10
0 -8 -86 2 -96 3 -4 2 -14 -2 -23 -5 -9 -6 -36 -1 -60 4 -25 6 -51 3 -58 -3
-7 0 -13 6 -13 6 0 10 -11 9 -23 -1 -13 12 -46 30 -74 28 -43 31 -54 22 -77
-9 -25 -14 -27 -56 -24 -39 3 -48 7 -62 33 -9 17 -21 33 -27 37 -5 4 -2 22 9
45 30 60 35 108 20 171 -8 32 -18 64 -23 73 -5 9 -12 37 -16 62 -8 54 -14 57
-111 63 -39 2 -87 11 -106 19 -45 18 -59 6 -16 -13 27 -12 30 -16 14 -20 -15
-3 -16 -6 -5 -13 10 -6 7 -9 -11 -9 -14 1 -41 -2 -60 -6 l-35 -6 23 21 c12 12
22 23 22 25 0 2 -10 2 -22 -1 -19 -4 -20 -3 -8 6 13 10 13 12 0 22 -12 8 -10
9 8 4 13 -4 22 -2 22 4 0 10 -21 16 -42 12 -5 0 -8 3 -8 8 0 4 -27 18 -60 30
-33 12 -59 25 -56 29 2 4 -21 8 -51 10 l-54 3 6 -38 c9 -52 51 -193 82 -278
25 -66 47 -112 114 -231 39 -70 38 -88 -8 -102 -33 -10 -40 -9 -60 10 -12 11
-20 26 -16 32 3 6 3 8 -1 4 -10 -8 -46 22 -46 39 0 7 -6 13 -14 13 -8 0 -28
16 -44 36 l-30 36 -4 -66 c-1 -36 1 -66 5 -66 5 0 5 -5 1 -11 -3 -6 -9 -28
-11 -48 -3 -20 -7 -38 -10 -41 -9 -10 -33 34 -33 61 0 15 -7 29 -15 32 -8 4
-21 28 -29 54 -12 40 -15 43 -15 19 -1 -42 -7 -29 -14 29 -4 32 -3 43 3 30 7
-17 9 -16 10 10 1 17 3 49 5 73 5 70 -17 45 -42 -49 -20 -71 -23 -100 -19
-188 5 -112 1 -125 -13 -40 l-9 54 -1 -69 c-1 -60 -3 -67 -16 -56 -13 11 -14
10 -9 -5 5 -13 4 -16 -5 -10 -8 4 -11 18 -7 35 3 20 -1 33 -14 45 -15 13 -20
31 -20 67 0 33 -4 47 -11 42 -6 -3 -9 -19 -7 -35 3 -16 1 -29 -4 -29 -4 0 -7
44 -7 98 1 53 4 85 6 70 2 -16 8 -28 12 -28 9 0 31 149 31 209 0 24 6 49 15
58 8 8 13 19 10 24 -4 5 -2 9 4 9 5 0 12 18 16 40 4 22 11 40 15 40 9 0 -12
59 -52 149 -24 54 -18 64 8 14 21 -41 31 -55 55 -81 9 -9 19 -26 22 -37 3 -11
4 3 2 30 -2 40 9 105 15 85 8 -27 8 -50 1 -50 -5 0 -7 -9 -4 -20 3 -11 9 -20
14 -20 5 0 9 -23 8 -50 -3 -76 8 -71 16 7 3 37 10 80 15 95 8 25 5 29 -33 47
-47 23 -117 78 -117 92 0 5 9 0 20 -11 11 -11 26 -20 33 -20 9 0 8 3 -2 9 -7
5 -10 14 -7 20 4 7 2 10 -5 9 -7 -2 -13 2 -14 7 -1 14 -25 57 -40 72 -21 21
-73 155 -89 228 -8 39 -23 88 -33 110 -17 38 -71 124 -84 135 -3 3 -25 31 -48
63 -44 58 -60 73 -41 37 6 -11 8 -26 4 -32 -4 -6 -3 -9 2 -5 5 3 20 -11 33
-30 18 -27 19 -34 7 -30 -9 4 -16 2 -16 -3 0 -6 3 -10 8 -10 4 0 13 -15 21
-32 7 -18 19 -45 27 -61 9 -19 9 -25 1 -20 -7 4 -7 1 1 -9 8 -10 12 -34 10
-55 -1 -21 1 -88 6 -149 6 -84 5 -117 -4 -135 -8 -14 -9 -24 -3 -26 10 -4 9
-44 -2 -135 -2 -21 0 -40 6 -43 5 -4 3 -18 -6 -36 -12 -22 -13 -34 -4 -50 6
-11 8 -23 5 -27 -3 -3 -6 0 -6 7 0 7 -5 9 -10 6 -6 -4 -8 -11 -5 -16 4 -5 0
-9 -7 -9 -9 0 -9 -3 2 -10 12 -8 13 -13 3 -30 -7 -11 -13 -30 -14 -42 -1 -22
-1 -22 -9 2 -8 24 -8 23 -9 -7 -1 -18 -6 -33 -11 -33 -7 0 -6 -8 1 -22 11 -21
11 -22 -5 -9 -15 13 -19 13 -27 0 -5 -8 -9 -17 -9 -21 0 -4 -25 -32 -55 -62
-30 -29 -55 -59 -55 -65 0 -6 -7 -8 -15 -5 -9 4 -19 -3 -26 -20 -8 -16 -20
-26 -33 -26 -17 0 -18 -2 -6 -10 12 -8 11 -10 -6 -10 -17 0 -20 5 -16 25 2 15
0 25 -7 25 -6 0 -11 -6 -11 -13 0 -7 -16 -32 -35 -54 -19 -23 -35 -45 -35 -50
0 -5 -9 -9 -20 -10 -11 -1 -20 2 -20 8 0 16 -14 10 -45 -19 -46 -42 -82 -62
-128 -72 -35 -6 -37 -8 -13 -9 30 -1 147 28 156 38 7 9 80 7 80 -1 0 -4 7 -5
15 -2 24 10 17 -4 -22 -43 -44 -44 -28 -57 23 -18 19 15 41 24 49 22 7 -3 16
1 19 9 3 8 10 14 17 14 6 0 8 -7 5 -16 -3 -8 -1 -24 5 -35 8 -15 7 -24 -2 -35
-6 -8 -9 -17 -5 -21 3 -3 6 -1 6 5 0 7 5 12 10 12 6 0 4 -12 -4 -29 -9 -16
-12 -31 -9 -35 6 -6 -5 -17 -61 -61 -14 -11 -41 -33 -59 -50 -72 -65 -70 -64
-127 -51 -32 7 -63 22 -80 39 -15 15 -32 27 -38 27 -14 0 -43 41 -36 52 3 4
-1 15 -8 23 -7 9 -17 21 -23 28 -5 7 -11 26 -13 42 -2 17 -14 40 -28 53 -13
13 -24 27 -24 32 0 4 -17 19 -37 31 -21 13 -40 25 -43 28 -3 4 -21 15 -40 25
-90 49 -178 116 -238 183 -66 72 -84 85 -62 43 10 -18 9 -24 -1 -31 -17 -10
-34 0 -21 13 7 7 6 25 -3 55 -19 61 -25 64 -25 12 0 -30 3 -39 9 -30 6 9 8 -7
5 -45 -4 -62 11 -128 27 -118 5 3 5 12 0 22 -4 9 -6 23 -3 31 3 9 0 11 -8 6
-9 -6 -9 -1 1 16 14 26 13 30 35 -91 4 -19 15 -51 25 -71 10 -20 16 -39 12
-42 -7 -8 59 -147 68 -141 4 2 11 -6 15 -18 10 -34 79 -116 238 -281 33 -34
75 -87 94 -117 19 -30 40 -60 46 -65 14 -13 56 -72 56 -80 0 -10 -71 76 -115
139 -39 56 -66 85 -212 237 -40 42 -73 81 -73 87 0 5 -7 15 -16 23 -39 32
-134 207 -134 246 0 8 -4 12 -8 9 -4 -2 -9 7 -10 22 -1 15 -9 33 -18 42 -15
14 -16 11 -9 -35 21 -154 120 -445 145 -430 4 2 12 -6 17 -18 6 -12 38 -78 71
-147 33 -69 62 -134 65 -145 15 -56 17 -76 9 -71 -6 3 -12 -4 -16 -17 -5 -18
-8 -20 -16 -7 -5 8 -10 10 -10 5 0 -6 -9 -16 -20 -22 -16 -11 -18 -10 -14 2 4
10 2 13 -8 10 -8 -3 -21 1 -28 9 -7 9 -17 13 -23 9 -6 -3 -7 -1 -3 5 4 7 -2
29 -12 50 -11 20 -24 55 -30 77 -6 22 -15 59 -21 81 -6 23 -11 51 -11 63 0 12
-4 20 -9 17 -5 -4 -12 0 -14 6 -4 9 -6 10 -6 1 -1 -6 3 -15 9 -18 6 -4 5 -16
-4 -33 -7 -15 -17 -63 -21 -107 -10 -110 -24 -69 -19 55 2 52 1 88 -2 80 -4
-8 -12 -21 -18 -29 -8 -11 -8 -13 2 -7 6 4 12 2 12 -3 0 -12 -170 -94 -177
-87 -3 2 8 12 24 21 19 11 21 14 7 10 -17 -4 -21 -1 -20 17 1 13 0 27 -3 32
-2 6 -6 19 -7 30 -1 12 -9 68 -18 124 -29 191 -35 311 -23 425 5 40 4 73 -1
80 -8 10 -15 76 -28 282 -9 136 -14 180 -24 211 -7 19 -13 49 -15 67 -5 39
-20 133 -35 207 -25 126 -27 141 -18 146 6 4 5 11 -1 17 -6 6 -11 27 -12 47
-1 19 -4 46 -8 59 -5 20 -8 17 -19 -24 -7 -26 -15 -45 -18 -43 -2 3 0 16 5 30
15 39 25 258 12 258 -6 0 -11 9 -11 20 0 16 -4 18 -24 10 -13 -5 -27 -6 -31
-2 -4 4 -10 7 -13 8 -4 0 -47 4 -97 8 -49 4 -121 12 -158 18 -76 11 -88 13
-202 23 -44 4 -84 11 -90 15 -5 5 -59 13 -120 19 -123 12 -182 26 -206 47 -13
12 -14 24 -8 64 12 77 48 165 80 196 28 26 36 28 157 36 296 17 400 26 413 33
7 5 24 10 38 11 107 12 120 16 118 38 -1 11 -8 26 -15 32 -15 11 -14 25 8 115
l11 47 61 13 c33 8 63 19 65 26 3 7 9 11 13 8 4 -3 21 2 38 11 33 16 56 10 81
-20 10 -12 26 -14 70 -10 54 6 57 5 68 -19 10 -22 10 -25 -3 -20 -10 3 -12 0
-8 -10 3 -8 1 -18 -5 -22 -6 -3 -11 -1 -11 6 0 8 -4 8 -15 -1 -8 -7 -24 -10
-35 -7 -22 6 -22 5 -44 -113 -1 -3 -5 -11 -10 -18 -4 -8 -1 -22 7 -36 12 -17
13 -26 4 -35 -7 -7 -7 -11 -1 -11 15 0 62 54 109 125 44 67 138 181 172 208
12 10 31 31 43 46 19 28 19 33 6 127 -27 189 -27 212 -3 238 35 37 108 45 178
20z m4246 -6 c-3 -8 -6 -5 -6 6 -1 11 2 17 5 13 3 -3 4 -12 1 -19z m96 -9 c31
-1 31 -1 7 -9 -41 -13 -50 -11 -49 13 0 12 3 16 6 10 2 -7 19 -13 36 -14z
m-6973 -258 c11 -13 87 -61 97 -61 6 0 13 -6 16 -14 3 -8 28 -17 59 -21 68 -9
157 -34 185 -52 12 -8 37 -13 55 -11 25 2 34 8 36 26 4 27 22 29 22 2 0 -11 4
-20 9 -20 5 0 11 -9 14 -20 8 -29 -17 -38 -80 -28 -33 5 -91 5 -141 -1 -66 -7
-96 -6 -132 5 -52 15 -97 54 -106 91 -4 12 -10 23 -15 23 -5 0 -9 7 -9 15 0 8
-6 15 -14 15 -17 0 -29 27 -15 35 5 4 7 11 3 16 -3 5 -10 7 -15 4 -12 -8 -31
4 -24 16 6 8 42 -5 55 -20z m6146 -151 c65 -23 93 -114 44 -140 -32 -17 -92 4
-107 37 -16 33 -17 63 -3 63 6 0 10 9 10 19 0 11 6 22 13 24 6 3 12 6 13 6 1
1 14 -4 30 -9z m-886 -115 c0 -8 -7 -15 -15 -15 -16 0 -20 12 -8 23 11 12 23
8 23 -8z m1228 -27 c-2 -3 4 -14 13 -24 9 -11 20 -30 24 -44 4 -14 14 -33 23
-43 17 -19 22 -114 6 -125 -5 -4 -19 -21 -31 -39 -23 -33 -32 -106 -14 -117
10 -7 21 -53 28 -121 2 -27 15 -85 29 -128 13 -43 24 -84 24 -91 0 -8 20 -42
44 -77 77 -114 80 -123 66 -201 -16 -83 -5 -127 47 -182 33 -35 35 -39 22 -62
-11 -22 -11 -27 1 -34 8 -6 11 -10 5 -10 -15 0 -19 -224 -5 -250 18 -34 16
-119 -3 -180 -10 -30 -19 -84 -20 -120 -2 -53 -6 -66 -20 -73 -18 -7 -18 -19
-13 -205 5 -137 13 -227 27 -297 11 -55 19 -126 17 -158 -2 -31 0 -58 4 -60 4
-1 10 -72 13 -157 4 -85 11 -167 17 -182 6 -16 8 -36 6 -46 -3 -11 1 -61 9
-113 7 -52 16 -200 18 -329 3 -129 8 -242 11 -250 15 -40 45 -307 45 -405 0
-11 0 -60 -1 -110 -1 -95 4 -142 20 -215 36 -167 63 -734 34 -709 -8 6 -14 22
-14 35 0 14 -5 32 -10 42 -10 16 -45 285 -55 417 -3 33 -7 78 -10 100 -4 22
-8 65 -11 95 -3 30 -10 79 -15 108 -6 29 -10 80 -10 113 0 33 -4 57 -9 54 -9
-6 -22 48 -18 75 5 30 -25 217 -52 324 -22 88 -26 116 -18 145 6 20 7 65 4
101 -4 36 -9 85 -11 110 -3 25 -9 74 -15 110 -23 161 -33 249 -56 478 -2 24
-13 105 -25 180 -11 75 -22 182 -25 237 -3 55 -14 143 -24 195 -10 52 -21 127
-25 165 -7 79 -12 112 -25 172 -14 63 -32 437 -29 618 2 88 0 170 -5 182 -11
34 -71 65 -139 73 -173 21 -262 34 -267 40 -3 4 -34 10 -70 13 -110 10 -310
53 -327 71 -4 4 -3 10 2 14 12 9 13 35 1 43 -4 4 1 27 12 52 15 34 31 51 61
66 22 12 47 21 56 21 8 0 32 9 52 20 24 13 57 20 90 20 28 0 54 4 57 9 3 4 18
11 34 14 16 3 53 22 83 42 30 19 70 40 90 45 31 9 95 60 74 60 -4 0 -1 8 7 18
8 9 23 40 34 67 10 28 30 62 46 76 17 16 28 36 28 52 0 14 5 29 10 32 6 3 10
35 10 70 0 35 4 74 9 87 5 14 11 37 13 54 3 28 25 56 41 51 5 -1 7 -5 5 -9z
m-2158 -1178 c0 -5 -4 -10 -10 -10 -5 0 -10 5 -10 10 0 6 5 10 10 10 6 0 10
-4 10 -10z m-685 -91 c18 -1 18 -2 1 -6 -15 -4 -16 -7 -5 -14 12 -7 11 -9 -2
-9 -9 0 -21 12 -28 28 -10 22 -10 25 0 15 7 -7 22 -14 34 -14z m-38 -81 c-3
-8 -6 -5 -6 6 -1 11 2 17 5 13 3 -3 4 -12 1 -19z m0 -65 c-3 -10 -5 -2 -5 17
0 19 2 27 5 18 2 -10 2 -26 0 -35z m333 -49 c0 -8 -4 -12 -10 -9 -5 3 -10 13
-10 21 0 8 5 12 10 9 6 -3 10 -13 10 -21z m-188 -36 c-8 -8 -9 -4 -5 13 4 13
8 18 11 10 2 -7 -1 -18 -6 -23z m1113 -18 c-3 -5 -14 -10 -23 -10 -15 0 -15 2
-2 10 20 13 33 13 25 0z m-1144 -57 c-12 -20 -14 -14 -5 12 4 9 9 14 11 11 3
-2 0 -13 -6 -23z m-134 -15 c-3 -8 -6 -5 -6 6 -1 11 2 17 5 13 3 -3 4 -12 1
-19z m-5055 -39 c9 -5 27 -9 40 -9 13 0 29 -5 35 -11 7 -7 40 -11 80 -10 234
7 308 4 338 -12 17 -9 35 -17 41 -17 6 0 23 -17 38 -38 23 -34 44 -125 46
-200 0 -7 4 -11 8 -8 9 5 10 -4 13 -106 2 -61 -1 -82 -14 -96 -10 -10 -17 -24
-17 -30 0 -7 -4 -12 -10 -12 -5 0 -10 -7 -10 -15 0 -15 -34 -38 -43 -29 -3 3
-16 -1 -29 -10 -26 -19 -55 -21 -60 -5 -2 6 -24 11 -48 10 -204 -5 -371 -1
-410 9 -25 7 -95 16 -156 20 l-110 8 -47 48 c-43 43 -47 51 -48 98 -2 144 4
292 12 315 6 14 10 27 10 29 -2 3 29 62 32 62 1 0 19 6 40 13 41 15 239 11
269 -4z m5158 -26 c-11 -17 -11 -17 -6 0 3 10 6 24 7 30 0 9 2 9 5 0 3 -7 0
-20 -6 -30z m27 5 c-3 -8 -6 -5 -6 6 -1 11 2 17 5 13 3 -3 4 -12 1 -19z m12
-59 c-12 -30 -25 -76 -29 -104 l-8 -50 -1 45 c-1 41 49 193 57 171 1 -4 -7
-33 -19 -62z m615 45 c3 -8 2 -12 -4 -9 -6 3 -10 10 -10 16 0 14 7 11 14 -7z
m-637 -26 c-3 -8 -6 -5 -6 6 -1 11 2 17 5 13 3 -3 4 -12 1 -19z m673 -43 c0
-9 -44 -23 -54 -17 -5 3 -1 9 10 13 23 9 44 11 44 4z m-613 -67 c-3 -8 -6 -5
-6 6 -1 11 2 17 5 13 3 -3 4 -12 1 -19z m603 -8 c0 -5 -2 -10 -4 -10 -3 0 -8
5 -11 10 -3 6 -1 10 4 10 6 0 11 -4 11 -10z m-13 -66 c-3 -3 -12 -4 -19 -1 -8
3 -5 6 6 6 11 1 17 -2 13 -5z m-670 -56 c-3 -7 -5 -2 -5 12 0 14 2 19 5 13 2
-7 2 -19 0 -25z m-4087 -40 c11 -12 20 -25 20 -30 0 -4 6 -8 14 -8 17 0 27
-93 13 -130 -5 -14 -10 -32 -11 -40 -1 -8 -7 -26 -13 -40 -13 -32 -8 -116 8
-136 6 -8 9 -17 6 -21 -4 -3 -2 -12 4 -20 7 -7 13 -44 14 -81 1 -37 9 -87 18
-112 9 -25 19 -85 23 -135 7 -99 0 -118 -48 -129 -22 -5 -30 -1 -40 16 -22 40
-37 98 -25 98 6 0 1 11 -11 23 -18 19 -23 36 -23 83 0 101 11 326 17 336 3 5
-2 16 -12 23 -11 9 -14 14 -6 15 9 0 9 5 3 18 -11 19 -31 122 -38 192 -4 36 0
51 17 73 26 33 43 34 70 5z m4077 -40 c-3 -7 -5 -2 -5 12 0 14 2 19 5 13 2 -7
2 -19 0 -25z m-1667 -74 c0 -8 -4 -14 -10 -14 -5 0 -10 9 -10 21 0 11 5 17 10
14 6 -3 10 -13 10 -21z m1320 -4 c0 -5 -4 -10 -10 -10 -5 0 -10 5 -10 10 0 6
5 10 10 10 6 0 10 -4 10 -10z m1078 -7 c-21 -2 -57 -2 -80 0 -24 2 -7 4 37 4
44 0 63 -2 43 -4z m328 -1 c-5 -8 -76 -4 -76 4 0 2 18 4 41 4 22 0 38 -4 35
-8z m-2318 -72 c0 -9 -3 -7 -8 5 -5 11 -8 29 -8 40 0 16 2 15 8 -5 4 -14 8
-32 8 -40z m1738 38 c-3 -13 -5 -27 -5 -32 -1 -4 -8 -5 -17 -2 -8 3 -12 2 -9
-4 3 -6 1 -10 -5 -10 -6 0 -21 -10 -33 -21 -12 -12 -15 -18 -7 -14 13 8 13 6
1 -8 -7 -9 -18 -14 -24 -10 -5 3 -7 2 -4 -4 3 -5 -5 -22 -19 -38 -13 -15 -24
-23 -24 -17 0 6 -3 19 -6 29 -5 15 -4 15 5 3 9 -13 11 -13 11 1 0 9 9 24 20
34 12 10 19 24 16 31 -5 14 33 68 42 59 3 -3 -5 -17 -19 -31 -20 -23 -21 -25
-4 -16 11 6 33 24 49 41 35 37 37 37 32 9z m570 12 c43 -17 23 -21 -26 -5 -27
8 -36 14 -23 14 12 1 34 -4 49 -9z m-1399 -32 c-3 -8 -6 -5 -6 6 -1 11 2 17 5
13 3 -3 4 -12 1 -19z m863 18 c0 -3 -4 -8 -10 -11 -5 -3 -10 -1 -10 4 0 6 5
11 10 11 6 0 10 -2 10 -4z m-426 -22 c3 -8 2 -12 -4 -9 -6 3 -10 10 -10 16 0
14 7 11 14 -7z m-1215 -44 l23 -35 -26 30 c-14 17 -26 34 -26 39 0 11 0 11 29
-34z m1730 -25 c0 -5 -6 1 -14 15 -8 14 -14 30 -14 35 0 6 6 -1 14 -15 8 -14
14 -29 14 -35z m-1805 -118 c27 -59 35 -97 13 -62 -22 36 -74 190 -69 205 3 8
11 -8 18 -36 7 -27 24 -75 38 -107z m120 87 c5 -14 4 -15 -9 -4 -17 14 -19 20
-6 20 5 0 12 -7 15 -16z m-554 -14 c0 -5 -2 -10 -4 -10 -3 0 -8 5 -11 10 -3 6
-1 10 4 10 6 0 11 -4 11 -10z m3700 -33 c0 -10 -4 -15 -10 -12 -5 3 -10 18
-10 33 0 21 2 24 10 12 5 -8 10 -23 10 -33z m24 -249 c2 -50 0 -85 -5 -82 -5
3 -9 17 -9 32 0 21 -2 24 -10 12 -7 -10 -10 11 -8 72 1 48 -1 91 -5 94 -4 4
-7 0 -7 -10 0 -9 -4 -15 -8 -12 -5 3 -7 19 -4 35 2 17 8 28 13 25 5 -3 9 3 9
14 0 10 3 22 8 26 9 9 21 -89 26 -206z m-2024 68 c0 -2 -8 -10 -17 -17 -16
-13 -17 -12 -4 4 13 16 21 21 21 13z m-1295 -266 l-14 -55 5 50 c2 28 8 70 12
95 l7 45 2 -40 c2 -22 -4 -65 -12 -95z m564 55 c17 -33 31 -63 31 -68 0 -5 7
-24 16 -43 9 -19 13 -41 9 -51 -5 -14 -11 -6 -24 32 -9 28 -21 59 -28 70 -6
11 -15 36 -21 55 -5 19 -13 44 -18 55 -13 35 3 12 35 -50z m-512 -102 c-3 -10
-5 -4 -5 12 0 17 2 24 5 18 2 -7 2 -21 0 -30z m-96 -120 c-20 -36 -58 -83 -64
-77 -7 7 53 94 65 94 5 0 4 -8 -1 -17z m677 -33 c-7 -10 -14 -17 -17 -15 -4 4
18 35 25 35 2 0 -1 -9 -8 -20z m-113 -59 c-61 -76 -102 -108 -116 -94 -15 15
1 46 16 33 8 -7 19 -2 36 18 22 25 22 25 1 8 -12 -11 -25 -16 -29 -12 -11 10
25 40 49 41 12 0 22 6 24 13 1 7 0 8 -3 2 -2 -5 -9 -10 -15 -10 -6 0 -3 9 6
19 10 11 25 17 34 14 10 -4 13 -2 8 5 -4 7 -1 12 8 12 9 0 16 5 16 10 0 6 5
10 10 10 6 0 -14 -31 -45 -69z m-3367 13 c69 -14 102 -44 102 -95 0 -11 4 -18
9 -15 5 4 8 -25 6 -66 -2 -56 3 -89 22 -147 14 -42 26 -95 26 -118 1 -24 4
-43 8 -43 3 0 9 -17 12 -37 4 -21 12 -60 18 -88 11 -51 15 -109 23 -401 2 -89
9 -171 15 -182 6 -11 11 -41 11 -66 0 -25 5 -46 10 -46 6 0 10 -33 10 -80 0
-69 -3 -82 -22 -100 -24 -22 -40 -24 -108 -10 -36 6 -52 4 -82 -11 -44 -23
-48 -23 -48 -5 0 7 -6 19 -14 25 -20 17 -36 141 -35 271 0 63 -5 140 -12 170
-13 62 -24 373 -14 399 7 16 15 71 16 105 0 10 7 28 15 41 8 12 12 29 9 38 -4
9 2 21 15 30 18 13 21 23 18 71 -1 31 -6 56 -10 56 -5 0 -8 6 -8 14 0 7 -7 27
-15 42 -8 16 -17 45 -21 64 -3 19 -12 65 -20 102 -20 93 -19 99 11 93 14 -3
37 -8 53 -11z m3403 -107 c-32 -64 -60 -114 -63 -111 -4 3 -5 -1 -4 -8 2 -23
-67 -177 -77 -171 -6 3 -7 2 -4 -4 5 -8 -6 -42 -78 -243 l-24 -65 1 62 c0 49
4 63 17 66 10 2 2 8 -19 14 -19 6 -27 12 -17 12 10 1 15 6 12 11 -4 6 -11 8
-16 5 -5 -4 -9 0 -9 8 0 18 21 27 67 27 33 0 35 2 29 26 -4 16 -3 23 3 20 12
-8 23 26 16 46 -10 25 -30 16 -32 -14 -1 -16 -6 -36 -12 -45 -6 -12 -8 -1 -6
35 2 44 1 51 -11 41 -11 -9 -14 -7 -14 9 0 12 5 24 10 27 6 3 10 23 10 43 0
28 -3 33 -10 22 -13 -19 -13 -8 0 24 7 19 6 26 -2 26 -9 0 -9 3 0 12 7 7 12
22 12 35 0 13 6 23 14 23 8 0 17 11 20 25 6 24 36 36 36 15 0 -5 -4 -10 -9
-10 -5 0 -11 -11 -13 -25 -3 -15 -1 -22 5 -18 6 4 8 -3 4 -18 -4 -13 -7 -28
-7 -32 0 -5 -4 -6 -9 -2 -23 14 -21 -20 2 -41 29 -26 42 -31 32 -11 -4 6 3 1
15 -13 14 -16 18 -18 12 -6 -7 14 -4 28 14 54 25 36 23 62 -2 41 -22 -18 -17
5 8 37 13 15 17 25 11 21 -15 -9 24 82 43 100 14 15 28 17 20 4 -4 -5 -1 -11
5 -13 6 -2 2 -15 -11 -31 -12 -15 -16 -27 -10 -27 8 0 8 -6 0 -22 -11 -22 -11
-22 5 -3 8 11 13 25 11 32 -3 7 -1 15 4 18 6 3 15 15 21 27 6 11 7 18 1 14 -5
-3 -12 3 -15 14 -3 13 1 21 14 25 11 4 16 11 12 18 -4 7 0 6 10 -2 14 -11 18
-11 23 3 4 9 8 15 10 14 2 -2 -23 -56 -55 -121z m-681 98 c0 -7 -77 -45 -92
-45 -7 0 7 11 32 25 45 24 60 29 60 20z m-143 -52 c-9 -2 -15 -9 -12 -14 7
-11 -10 -11 -45 -2 l-25 7 30 7 c35 8 82 10 52 2z m-3764 -379 c6 -10 17 -24
25 -30 22 -16 6 -34 -30 -34 -21 0 -31 -6 -35 -20 -6 -23 -23 -27 -23 -6 0 8
-9 18 -20 21 -11 3 -21 12 -22 18 -4 36 -3 43 11 59 21 23 80 18 94 -8z m4413
-1 c-10 -10 -19 5 -10 18 6 11 8 11 12 0 2 -7 1 -15 -2 -18z m-4199 -17 c12
-2 33 -12 47 -21 21 -14 28 -14 48 -4 16 10 69 13 185 12 145 -2 167 -4 210
-25 57 -26 53 -25 98 -27 27 -1 38 -6 44 -25 5 -13 19 -26 30 -29 23 -6 28
-35 12 -65 -5 -9 -13 -26 -16 -37 l-7 -20 -8 20 c-6 16 -9 10 -15 -26 -5 -32
-2 -56 9 -83 17 -41 22 -141 7 -132 -5 3 -14 -7 -20 -22 -13 -31 -53 -61 -59
-44 -2 6 -14 5 -32 -5 -17 -8 -39 -12 -49 -8 -11 3 -43 -4 -73 -17 -51 -22
-64 -23 -296 -23 -193 0 -245 3 -251 14 -6 9 -11 10 -15 2 -9 -14 -42 2 -55
27 -10 19 -42 151 -46 192 -1 14 -6 37 -9 51 -5 16 -1 41 8 64 19 43 21 75 5
75 -6 0 -4 7 5 15 8 8 21 15 29 15 15 0 85 88 90 113 4 22 58 28 124 13z
m6399 -498 c-19 -27 -21 -19 -4 18 7 14 14 21 16 15 2 -6 -4 -21 -12 -33z m59
32 c3 -5 1 -10 -4 -10 -6 0 -11 5 -11 10 0 6 2 10 4 10 3 0 8 -4 11 -10z m35
-9 c0 -5 -7 -12 -16 -15 -14 -5 -15 -4 -4 9 14 17 20 19 20 6z m30 -6 c0 -8
-4 -15 -10 -15 -5 0 -7 7 -4 15 4 8 8 15 10 15 2 0 4 -7 4 -15z m-3778 -121
c-9 -16 -10 -14 -9 8 1 15 6 23 11 18 4 -4 4 -16 -2 -26z m2455 20 c-3 -3 -12
-4 -19 -1 -8 3 -5 6 6 6 11 1 17 -2 13 -5z m58 -4 c-3 -5 -11 -10 -16 -10 -6
0 -7 5 -4 10 3 6 11 10 16 10 6 0 7 -4 4 -10z m-170 -19 c-2 -14 2 -19 18 -18
12 1 45 -2 74 -6 40 -6 55 -4 66 8 9 8 18 11 21 7 3 -5 22 -7 42 -5 21 1 51
-4 68 -12 16 -8 35 -15 42 -15 8 0 11 -6 7 -16 -5 -13 -1 -15 18 -9 18 5 21 4
9 -4 -22 -15 -93 -13 -160 4 -32 8 -97 16 -144 17 -56 1 -83 6 -78 13 3 5 -2
4 -11 -4 -10 -8 -20 -11 -23 -8 -10 9 6 27 24 27 15 1 14 3 -3 17 -16 12 -16
14 -3 10 10 -3 20 -2 23 3 10 16 14 12 10 -9z m113 -2 c-16 -11 -61 -12 -55
-1 3 4 19 7 37 8 21 1 27 -2 18 -7z m197 -10 c12 -12 8 -11 -45 6 l-45 15 40
-6 c22 -3 44 -10 50 -15z m-372 4 c-7 -2 -21 -2 -30 0 -10 3 -4 5 12 5 17 0
24 -2 18 -5z m-53 -11 c0 -4 -32 -6 -70 -4 -48 2 -80 -2 -100 -12 -17 -8 -30
-11 -30 -7 0 18 49 30 123 30 42 1 77 -2 77 -7z m30 -22 c-8 -6 -24 -9 -35 -9
-15 0 -13 4 10 14 32 14 49 10 25 -5z m-254 -18 c-2 -4 5 -14 17 -22 20 -12
21 -12 8 4 -13 15 -12 16 12 7 15 -6 87 -11 162 -12 111 -1 135 -3 135 -16 0
-8 5 -11 10 -8 6 4 18 4 26 1 14 -5 13 -9 -5 -24 -15 -12 -18 -21 -12 -31 8
-12 16 -13 46 -4 20 6 47 9 61 7 16 -3 23 -1 19 6 -3 5 -1 10 6 10 7 0 4 7 -7
15 -30 23 -12 18 57 -16 72 -35 155 -84 124 -74 -34 11 -40 10 -40 -5 0 -8 -4
-21 -9 -29 -7 -11 -4 -13 11 -9 12 3 27 1 34 -4 10 -7 9 -8 -5 -4 -15 5 -17 4
-7 -8 9 -11 9 -15 -1 -19 -7 -3 -3 -6 8 -6 25 -1 42 -31 18 -31 -9 0 -12 5 -8
11 4 8 0 9 -15 4 -13 -4 -21 -2 -21 5 0 7 -8 10 -20 7 -11 -3 -20 -2 -20 1 0
4 -15 7 -32 7 -18 0 -42 8 -53 18 -11 10 -28 16 -37 13 -10 -2 -16 0 -12 5 3
5 -4 9 -15 9 -10 0 -21 5 -23 12 -2 6 -13 13 -24 14 -10 1 -40 9 -66 18 -27 8
-48 11 -48 6 0 -5 -19 -3 -41 5 -23 8 -64 15 -91 15 -34 0 -50 4 -54 15 -6 16
-29 20 -37 8 -2 -5 -3 -3 -1 4 4 18 -8 24 -23 11 -7 -6 -17 -8 -20 -4 -10 10
-13 37 -3 31 5 -3 11 -1 15 5 3 5 -1 10 -9 10 -8 0 -20 9 -26 20 -6 11 -16 20
-23 20 -7 0 -6 -4 3 -10 11 -7 11 -10 2 -10 -7 0 -10 -5 -6 -12 4 -7 3 -8 -5
-4 -7 4 -20 -2 -31 -16 -16 -19 -21 -20 -29 -9 -7 11 -19 5 -56 -30 -26 -24
-58 -54 -72 -66 -13 -13 -28 -23 -34 -23 -6 0 17 22 50 50 33 27 65 58 73 67
30 42 80 73 114 73 20 0 33 -4 30 -8z m432 -75 c-6 -7 -21 -13 -35 -13 l-24
-2 21 18 c24 20 57 17 38 -3z m411 -2 c16 -8 31 -12 34 -9 3 3 10 -4 17 -15 8
-16 8 -21 -1 -21 -7 0 -20 -7 -30 -16 -11 -10 -19 -12 -24 -5 -3 6 2 11 12 11
13 0 9 6 -14 21 -18 12 -33 27 -33 35 0 18 4 17 39 -1z m-867 -64 c30 -30 51
-36 168 -46 114 -10 194 -31 183 -49 -4 -5 0 -7 9 -3 29 11 243 -77 231 -95
-3 -6 4 -7 18 -3 13 4 21 4 17 0 -4 -4 -2 -17 4 -29 11 -21 11 -21 -11 -2 -18
17 -21 17 -15 3 7 -19 -20 -25 -31 -6 -4 6 -13 8 -19 6 -7 -3 -13 1 -13 8 0 8
3 14 6 13 19 -2 31 3 31 13 0 7 -7 8 -17 4 -10 -4 -27 -7 -38 -7 -18 1 -19 0
-2 -9 9 -6 14 -15 11 -21 -4 -6 0 -14 7 -19 10 -6 7 -9 -11 -9 -20 0 -22 -2
-10 -11 12 -8 11 -9 -5 -5 -11 3 -32 7 -47 10 -14 2 -36 9 -47 16 -12 6 -21 9
-21 6 0 -3 -21 1 -47 9 -27 7 -82 19 -123 26 -83 14 -79 13 -100 22 -12 5 -40
8 -127 17 -2 0 -3 8 -3 18 0 12 -3 13 -8 4 -14 -20 -98 -4 -127 26 -14 13 -25
30 -25 38 0 7 -3 19 -6 28 -4 11 -1 16 10 16 19 0 21 16 4 24 -7 4 -3 4 10 2
18 -3 22 -1 18 10 -3 8 -2 13 2 10 4 -2 13 -2 19 2 6 4 26 8 44 9 25 2 40 -5
61 -26z m748 -46 c13 -14 21 -25 18 -25 -3 0 -17 11 -32 25 -15 14 -23 25 -18
25 5 0 19 -11 32 -25z m-5253 -20 c100 -1 168 -6 176 -13 7 -6 53 -13 103 -16
49 -2 90 -5 92 -5 1 -1 2 -12 2 -26 0 -16 6 -25 15 -25 9 0 20 -11 27 -24 6
-14 20 -26 31 -28 15 -2 24 -16 34 -53 8 -27 18 -59 24 -70 7 -14 7 -29 0 -48
-6 -15 -7 -27 -4 -27 4 0 2 -5 -5 -12 -7 -7 -12 -40 -12 -80 0 -60 2 -68 19
-68 20 0 35 -25 25 -41 -3 -5 -12 -9 -20 -9 -8 0 -12 -4 -9 -10 7 -11 -52 -50
-77 -50 -10 0 -18 -4 -18 -8 0 -16 -111 -34 -201 -33 -48 1 -121 -4 -161 -9
-40 -6 -115 -11 -168 -11 -80 0 -108 5 -179 30 -47 17 -94 40 -107 54 -54 58
-77 261 -41 362 13 40 15 61 8 100 -11 57 -3 74 47 101 26 14 52 18 97 16 34
-1 73 2 86 7 13 5 31 7 39 4 8 -3 88 -7 177 -8z m4207 -14 c-10 -10 -21 -16
-24 -14 -3 3 4 11 14 19 28 20 33 17 10 -5z m100 11 c3 -5 -1 -9 -9 -9 -8 0
-12 4 -9 9 3 4 7 8 9 8 2 0 6 -4 9 -8z m1001 -32 c10 -11 16 -20 13 -20 -3 0
-13 9 -23 20 -10 11 -16 20 -13 20 3 0 13 -9 23 -20z m-1138 -27 c5 3 27 0 49
-8 21 -8 33 -14 27 -15 -15 0 -18 -50 -4 -50 6 0 12 4 15 8 6 10 36 9 53 -1 6
-4 13 2 16 13 10 38 66 16 145 -58 25 -23 54 -34 76 -28 12 3 32 -1 44 -10 12
-8 22 -12 22 -8 0 3 7 1 16 -6 8 -8 25 -15 37 -16 26 -3 117 -41 117 -49 0 -3
-9 -1 -19 5 -29 15 -38 12 -45 -14 -3 -13 -13 -27 -22 -30 -12 -5 -11 1 6 29
24 39 21 42 -18 19 l-27 -16 22 20 c22 19 22 20 3 25 -11 3 -20 1 -20 -5 0 -6
-7 -7 -16 -4 -8 3 -12 2 -9 -4 4 -6 -5 -10 -20 -10 -24 0 -25 -1 -11 -16 20
-19 20 -29 0 -48 -8 -9 -13 -20 -9 -26 4 -6 -1 -7 -11 -3 -12 4 -15 3 -10 -5
4 -7 2 -12 -4 -12 -7 0 -10 6 -7 14 3 8 -4 21 -18 30 -21 14 -24 14 -19 1 4
-10 0 -15 -10 -15 -9 0 -16 5 -16 10 0 6 -7 10 -15 10 -13 0 -14 -4 -5 -21 11
-19 10 -20 -9 -10 -11 6 -23 16 -26 21 -11 17 -22 11 -21 -12 1 -20 -4 -23
-41 -23 -43 0 -62 -8 -44 -20 6 -3 11 -1 11 4 0 6 5 11 11 11 8 0 8 -5 -1 -15
-8 -10 -21 -13 -38 -8 -17 4 -23 2 -18 -6 4 -6 3 -11 -3 -11 -5 0 -11 5 -13
10 -2 6 -13 3 -27 -6 -18 -13 -20 -18 -10 -25 26 -16 1 -20 -37 -5 -57 21
-104 28 -104 15 0 -7 -6 -6 -16 2 -9 8 -28 12 -42 11 -15 -3 -22 0 -18 7 4 6
0 11 -8 11 -9 0 -16 -5 -16 -12 0 -6 -8 -20 -17 -30 -14 -16 -15 -23 -5 -38
19 -30 15 -36 -22 -32 -19 2 -49 -3 -69 -13 -33 -15 -35 -19 -27 -46 7 -23 5
-31 -6 -36 -7 -3 -14 -11 -14 -19 0 -8 -5 -14 -11 -14 -6 0 -9 -6 -6 -14 5
-12 1 -13 -24 -4 -17 6 -33 8 -36 4 -4 -3 1 -6 10 -6 9 0 17 -4 17 -10 0 -5
-10 -9 -22 -7 -17 1 -22 -3 -20 -15 2 -13 -4 -18 -19 -18 -13 0 -32 -9 -44
-20 -12 -11 -42 -22 -73 -26 -49 -6 -52 -5 -62 20 -5 15 -11 40 -12 56 -1 17
-6 30 -11 30 -5 0 -1 7 7 16 9 8 15 30 15 47 l-1 32 -7 -30 -7 -30 -8 35 -8
35 -11 -25 -10 -25 -5 24 c-3 19 -6 21 -13 10 -18 -28 -9 76 10 111 23 44 98
103 123 97 10 -3 16 -2 13 3 -3 4 7 11 23 14 35 9 254 120 309 157 42 29 83
41 47 14 -10 -8 -14 -15 -8 -15 6 0 17 7 24 15 7 9 19 14 26 11 7 -2 20 5 31
17 18 22 18 22 -2 7 -18 -14 -27 -15 -59 -11 -5 0 2 10 16 20 14 12 33 18 45
15 11 -3 25 1 32 10 13 16 46 23 38 9 -3 -5 1 -13 8 -20 10 -9 14 -6 17 18 4
22 1 29 -9 25 -18 -7 -44 4 -37 16 4 6 9 6 14 -2 4 -7 12 -10 17 -7z m63 7 c0
-5 -4 -10 -10 -10 -5 0 -10 5 -10 10 0 6 5 10 10 10 6 0 10 -4 10 -10z m1091
-30 c6 0 7 6 3 13 -5 8 -2 7 9 -2 13 -10 14 -17 7 -26 -8 -9 -8 -15 0 -20 8
-5 7 -12 -2 -23 -12 -16 -11 -16 7 -2 11 8 23 20 27 25 5 6 8 5 8 -3 0 -20
-29 -45 -45 -38 -8 3 -15 12 -15 20 0 9 -6 13 -14 10 -16 -6 -41 49 -32 73 6
15 8 14 22 -5 8 -12 20 -22 25 -22z m-2616 11 c6 -5 28 -14 50 -21 22 -7 34
-15 27 -18 -10 -3 -9 -7 5 -17 10 -7 22 -13 27 -13 5 0 13 -7 18 -16 5 -9 13
-14 19 -11 5 4 9 1 9 -5 0 -7 -8 -9 -22 -5 -16 6 -20 4 -15 -8 4 -12 -1 -13
-28 -7 -19 4 -36 5 -39 2 -4 -3 -6 -1 -6 4 0 6 -14 9 -30 8 -21 -1 -36 5 -49
22 -10 13 -20 21 -23 19 -8 -9 -79 -12 -84 -4 -3 5 -10 9 -15 9 -6 0 -8 -4 -5
-8 6 -9 -47 -7 -63 3 -15 8 -14 48 1 63 14 14 209 17 223 3z m1407 -8 c-6 -2
-9 -10 -6 -15 4 -7 2 -8 -5 -4 -13 9 -5 26 12 25 9 0 8 -2 -1 -6z m1203 -83
c3 -6 -1 -7 -9 -4 -18 7 -21 14 -7 14 6 0 13 -4 16 -10z m-125 -10 c0 -5 8
-10 18 -10 10 0 27 -6 37 -14 19 -14 19 -15 1 -35 -20 -22 -46 -28 -46 -11 0
6 -7 10 -15 10 -16 0 -31 43 -20 59 8 14 25 14 25 1z m-80 -39 c0 -4 -16 -5
-35 -3 -19 2 -35 8 -35 12 0 5 12 7 26 4 19 -3 24 -1 18 8 -6 10 -3 9 9 -1 9
-7 17 -16 17 -20z m180 -7 c0 -3 -8 -17 -19 -30 -24 -30 -36 -19 -13 12 16 22
32 31 32 18z m-4510 -15 c0 -6 16 -27 35 -47 19 -20 35 -43 35 -51 0 -7 12
-24 26 -37 25 -24 25 -44 -2 -44 -17 0 -17 -5 -2 -33 7 -13 11 -54 9 -99 -1
-46 2 -79 8 -83 10 -5 17 99 12 157 -2 20 35 34 53 19 17 -14 22 -171 6 -171
-5 0 -10 18 -10 40 0 22 -4 40 -10 40 -5 0 -10 -3 -10 -7 -1 -5 -3 -30 -5 -58
-4 -36 0 -59 15 -87 11 -21 16 -38 11 -38 -5 0 -12 -7 -15 -16 -5 -13 -1 -15
20 -10 26 7 27 6 20 -33 -3 -23 -3 -41 1 -41 8 0 10 -23 19 -281 4 -107 2
-159 -5 -164 -7 -4 -11 13 -11 52 0 41 -3 54 -10 43 -5 -8 -10 -43 -10 -78 0
-34 -6 -72 -12 -83 -10 -17 -10 -23 0 -26 17 -6 15 -38 -3 -53 -8 -7 -15 -17
-15 -22 0 -5 -9 -21 -19 -34 l-19 -24 -21 26 c-11 14 -23 42 -26 63 -3 20 -13
65 -22 101 -16 64 -21 299 -7 344 4 10 2 16 -3 13 -5 -3 -9 55 -8 139 0 86 -4
148 -10 152 -12 9 -13 11 -36 142 -22 124 -24 205 -7 260 12 37 28 54 28 29z
m5354 -85 c19 -18 19 -20 5 -45 -10 -19 -12 -19 -29 -4 -20 18 -24 65 -4 65 7
0 20 -7 28 -16z m-1273 -31 c16 -3 32 -9 34 -14 3 -4 -9 -4 -26 1 -17 5 -34 9
-38 9 -3 -1 -16 2 -29 6 -17 6 -20 10 -11 21 9 11 14 11 26 -2 9 -8 28 -18 44
-21z m-311 -13 c0 -5 -4 -10 -10 -10 -5 0 -10 5 -10 10 0 6 5 10 10 10 6 0 10
-4 10 -10z m260 0 c0 -5 -4 -10 -10 -10 -5 0 -10 5 -10 10 0 6 5 10 10 10 6 0
10 -4 10 -10z m-180 -30 c18 -12 2 -12 -25 0 -13 6 -15 9 -5 9 8 0 22 -4 30
-9z m60 -20 c0 -5 -2 -10 -4 -10 -3 0 -8 5 -11 10 -3 6 -1 10 4 10 6 0 11 -4
11 -10z m61 -4 c-9 -11 -9 -15 1 -18 8 -3 9 -6 1 -11 -6 -4 -19 3 -29 14 -16
18 -16 19 -1 13 10 -3 17 -1 17 5 0 6 5 11 11 11 8 0 8 -4 0 -14z m-471 -16
c0 -5 -4 -10 -10 -10 -5 0 -10 5 -10 10 0 6 5 10 10 10 6 0 10 -4 10 -10z
m735 -7 c0 -13 31 -43 38 -37 3 3 8 0 13 -7 4 -7 3 -10 -4 -5 -6 3 -13 -3 -17
-14 -3 -11 -11 -20 -17 -20 -6 0 -6 6 2 15 17 20 5 32 -15 15 -14 -11 -19 -10
-38 8 -16 16 -18 22 -7 22 13 0 13 2 0 10 -12 7 -8 10 15 10 24 0 27 2 15 11
-13 9 -13 10 0 6 8 -2 15 -8 15 -14z m-225 -23 c8 -5 11 -10 5 -10 -5 0 -17 5
-25 10 -8 5 -10 10 -5 10 6 0 17 -5 25 -10z m-1695 -30 c-3 -5 -12 -10 -18
-10 -7 0 -6 4 3 10 19 12 23 12 15 0z m1109 1 c3 -5 -3 -11 -14 -14 -20 -5
-26 3 -13 16 9 10 21 9 27 -2z m-1521 -22 c100 -35 124 -38 175 -25 58 15 78
14 74 -3 -1 -8 2 -10 10 -5 6 4 21 8 32 9 12 1 30 5 41 9 13 5 11 2 -5 -8 -14
-8 -33 -15 -43 -16 -10 0 -15 -4 -12 -10 4 -6 -4 -6 -21 0 -17 7 -56 8 -98 4
-39 -4 -65 -9 -58 -11 6 -3 12 -9 12 -14 0 -16 -19 -10 -37 11 -21 24 -41 27
-22 3 13 -15 11 -16 -13 -10 -15 4 -37 3 -50 -1 -27 -10 -61 -4 -53 9 4 5 0 9
-9 9 -8 0 -16 4 -18 10 -5 14 -53 -14 -52 -31 1 -11 -15 -14 -73 -14 -41 1
-77 -3 -79 -7 -3 -4 3 -5 13 -2 17 5 17 5 0 -6 -9 -6 -22 -8 -28 -5 -5 4 -16
1 -24 -5 -8 -6 -19 -9 -25 -5 -5 3 -10 1 -10 -4 0 -6 -7 -11 -15 -11 -8 0 -15
-6 -15 -12 -1 -16 -30 21 -30 37 0 7 26 24 58 38 31 15 72 36 89 48 29 18 107
33 196 38 15 0 56 -9 90 -20z m1362 0 c2 -12 -3 -15 -16 -12 -10 3 -19 12 -19
20 0 20 32 12 35 -8z m165 -9 c0 -5 -5 -10 -11 -10 -5 0 -7 5 -4 10 3 6 8 10
11 10 2 0 4 -4 4 -10z m727 4 c-3 -3 -12 -4 -19 -1 -8 3 -5 6 6 6 11 1 17 -2
13 -5z m-2174 -81 c-7 -2 -21 -2 -30 0 -10 3 -4 5 12 5 17 0 24 -2 18 -5z m96
-9 c2 -1 -22 -10 -54 -19 -31 -9 -59 -14 -62 -11 -3 2 10 9 28 15 19 5 28 10
21 10 -7 1 -10 5 -7 11 5 8 62 4 74 -6z m-2724 -288 c83 -3 164 -9 180 -14 29
-8 29 -9 7 -16 -28 -9 -19 -26 13 -26 27 0 43 19 26 30 -7 4 11 10 40 13 55 7
89 -9 89 -40 0 -7 6 -13 14 -13 8 0 14 -10 14 -22 1 -29 12 -89 20 -108 3 -8
7 -26 8 -40 1 -14 9 -45 18 -69 11 -27 13 -48 8 -53 -5 -5 -6 -26 -2 -46 12
-60 6 -113 -16 -129 -10 -8 -18 -18 -17 -23 2 -5 -7 -15 -20 -21 -12 -7 -25
-17 -29 -23 -11 -17 -42 19 -62 73 -9 27 -24 52 -33 55 -10 4 -13 14 -9 30 7
27 -18 134 -34 150 -5 5 -10 21 -11 36 -1 24 -1 23 -9 -5 -16 -62 -29 -83 -60
-94 -18 -6 -34 -20 -37 -31 -4 -13 -11 -19 -20 -16 -8 3 -18 6 -22 6 -4 0 -7
21 -7 46 1 34 -4 50 -21 66 -21 19 -24 20 -46 5 -28 -18 -41 -84 -26 -124 12
-32 12 -80 -1 -88 -6 -4 -10 6 -10 23 0 16 -3 32 -7 35 -10 11 -34 -44 -28
-65 4 -10 2 -18 -4 -18 -6 0 -11 -11 -11 -25 0 -23 -4 -25 -45 -25 -43 0 -45
1 -45 30 0 37 -23 49 -46 25 -14 -13 -19 -14 -25 -3 -5 7 -9 21 -9 31 0 14 -5
16 -25 11 -22 -5 -28 -2 -37 23 -11 28 -13 30 -60 25 -47 -4 -54 0 -49 31 0 4
-4 7 -11 7 -6 0 -8 3 -5 7 4 3 0 15 -10 25 -9 10 -13 18 -8 18 4 0 3 6 -3 13
-7 7 -9 44 -6 92 8 125 6 159 -11 171 -12 9 -12 14 -2 27 14 19 199 45 292 40
33 -1 128 -4 210 -7z m7986 -218 c1 -22 1 -22 8 2 6 20 9 15 14 -30 10 -82 8
-139 -5 -163 -10 -19 -13 -12 -24 63 -7 47 -13 100 -14 118 0 36 19 45 21 10z
m-6194 -110 c-3 -8 -6 -5 -6 6 -1 11 2 17 5 13 3 -3 4 -12 1 -19z m-929 -146
c1 -31 -2 -64 -8 -72 -7 -11 -10 10 -10 70 0 93 16 95 18 2z m974 -11 c20 -75
114 -257 145 -279 27 -19 172 -71 203 -73 10 0 9 -3 -5 -9 -11 -5 -15 -9 -10
-9 6 -1 11 -18 12 -40 2 -44 37 -149 55 -167 7 -7 42 -15 78 -18 36 -3 88 -9
115 -15 65 -13 135 -14 135 -1 0 5 12 16 28 24 25 13 31 12 69 -10 37 -23 55
-25 180 -29 174 -6 198 -9 198 -25 0 -10 -36 -19 -125 -31 -69 -10 -145 -23
-170 -28 -25 -5 -93 -13 -152 -16 -59 -4 -122 -10 -139 -15 -16 -5 -65 -10
-107 -11 -42 -1 -94 -6 -117 -11 -77 -18 -159 -12 -215 16 -42 21 -65 26 -119
25 -36 -1 -91 -1 -122 0 -31 1 -90 -5 -131 -14 -40 -8 -86 -16 -102 -17 -18
-2 -31 -9 -34 -20 -5 -22 -22 -24 -22 -3 0 19 -9 19 -29 1 -19 -17 -90 -24
-110 -11 -22 13 -174 24 -193 14 -13 -7 -18 -22 -18 -54 0 -24 4 -46 8 -49 14
-8 186 -10 222 -1 19 4 44 14 55 21 11 8 31 14 46 14 34 0 43 10 21 26 -15 12
-13 13 20 14 29 0 36 -3 32 -15 -5 -12 5 -15 60 -15 36 0 68 0 71 -1 2 0 35
-9 72 -18 59 -15 76 -15 123 -5 30 7 105 13 165 13 61 1 238 2 395 3 285 3
360 -2 387 -23 18 -15 13 -48 -10 -72 -21 -21 -102 -34 -120 -19 -16 13 -130
15 -440 9 -109 -2 -120 -4 -137 -24 -16 -20 -21 -21 -54 -11 -29 9 -42 9 -57
0 -10 -7 -25 -12 -33 -12 -8 0 -17 -7 -20 -16 -5 -12 -15 -14 -44 -10 -51 9
-280 -10 -297 -24 -10 -8 -25 -8 -52 -1 -21 5 -58 10 -83 10 -25 1 -54 1 -65
2 -48 2 -215 -10 -225 -16 -6 -4 -10 -21 -8 -38 2 -21 -1 -32 -9 -31 -7 1 -22
2 -32 3 -14 1 -21 11 -26 41 -4 22 -14 47 -22 56 -13 13 -15 32 -9 110 5 79 4
95 -9 100 -8 3 -13 10 -10 14 3 5 1 11 -3 14 -5 3 -10 36 -11 73 -2 66 -1 69
29 86 22 14 39 16 63 11 18 -4 37 -7 44 -6 6 2 27 -7 45 -18 45 -27 120 -27
146 0 25 27 58 30 101 10 67 -32 330 -43 358 -14 17 16 19 73 8 209 -5 55 -9
148 -9 207 -1 58 -5 104 -9 101 -5 -3 -4 4 2 15 13 24 15 45 4 39 -5 -3 -8 25
-7 62 1 77 5 106 11 71 2 -14 9 -45 15 -69z m-1752 45 c0 -7 -9 -16 -20 -19
-15 -4 -20 0 -20 14 0 12 7 19 20 19 11 0 20 -6 20 -14z m-60 -30 c-14 -14
-24 0 -16 21 6 15 8 15 16 3 6 -9 5 -19 0 -24z m-73 -58 c-3 -8 -6 -5 -6 6 -1
11 2 17 5 13 3 -3 4 -12 1 -19z m3200 -54 c-23 -12 -26 -18 -17 -30 7 -7 17
-11 24 -7 6 4 6 1 -2 -9 -21 -26 -6 -192 20 -223 14 -16 9 -28 -7 -15 -11 9
-15 9 -15 1 0 -6 6 -14 13 -17 23 -9 13 -127 -14 -164 -23 -30 -66 -43 -56
-16 3 7 -3 20 -12 28 -24 21 -40 110 -44 261 -4 105 -2 129 10 136 13 7 13 9
-1 14 -10 4 -15 3 -12 -2 4 -5 -4 -7 -16 -3 -17 4 -4 12 57 33 91 31 113 35
72 13z m30 -46 c1 -43 1 -43 -6 -8 -6 31 -5 50 3 50 1 0 3 -19 3 -42z m-2443
-24 c3 -8 2 -12 -4 -9 -6 3 -10 10 -10 16 0 14 7 11 14 -7z m40 1 c-4 -8 -8
-15 -10 -15 -2 0 -4 7 -4 15 0 8 4 15 10 15 5 0 7 -7 4 -15z m-14 -61 c0 -8
-4 -12 -10 -9 -5 3 -10 10 -10 16 0 5 5 9 10 9 6 0 10 -7 10 -16z m1849 -7
c-2 -1 -12 -9 -22 -16 -15 -12 -17 -12 -11 3 3 9 13 16 22 16 8 0 13 -1 11 -3z
m-4 -56 c-3 -5 -1 -12 4 -16 5 -3 9 -23 9 -44 0 -22 3 -44 7 -51 4 -6 1 -17
-5 -25 -7 -8 -10 -24 -7 -34 3 -12 -1 -22 -9 -25 -9 -3 -14 1 -14 12 0 10 -5
23 -12 30 -8 8 -8 15 2 27 7 8 10 18 6 22 -3 3 -7 0 -8 -8 0 -8 -4 9 -7 36 -5
41 -3 53 13 68 21 19 30 22 21 8z m3510 -91 c3 -5 1 -10 -4 -10 -6 0 -11 5
-11 10 0 6 2 10 4 10 3 0 8 -4 11 -10z m-2908 -22 c-3 -8 -6 -5 -6 6 -1 11 2
17 5 13 3 -3 4 -12 1 -19z m-1801 -39 c14 -63 16 -109 5 -109 -25 0 -43 30
-36 58 3 15 9 40 12 55 6 32 11 30 19 -4z m1804 0 c0 -11 -4 -18 -10 -14 -5 3
-7 12 -3 20 7 21 13 19 13 -6z m-2411 -51 c19 -31 22 -56 26 -232 4 -136 2
-163 -12 -188 -10 -15 -21 -28 -25 -28 -16 0 -35 57 -33 99 1 25 -2 65 -7 90
-12 57 -12 222 -1 230 4 3 8 12 9 19 2 27 5 32 17 32 7 0 18 -10 26 -22z
m-888 -61 c29 -21 59 -22 85 -2 37 28 212 8 221 -26 3 -9 16 -20 29 -23 14 -4
22 -11 19 -16 -3 -5 -1 -11 5 -15 5 -3 10 -2 10 3 0 12 39 4 59 -12 11 -8 15
-8 19 2 2 8 13 1 28 -20 33 -44 31 -130 -3 -156 -19 -13 -22 -23 -17 -53 6
-33 4 -37 -19 -43 -26 -6 -87 18 -87 35 0 5 -8 9 -18 9 -10 0 -23 5 -29 11 -9
9 -14 5 -19 -16 -4 -15 -2 -30 3 -34 5 -3 12 -14 16 -23 7 -19 27 -25 27 -8 0
6 9 10 21 10 13 0 18 -4 13 -12 -5 -7 -3 -8 7 -2 22 14 38 13 66 -1 l27 -14
-28 -11 c-16 -6 -37 -8 -48 -4 -24 7 -80 -15 -75 -30 2 -6 14 -13 28 -17 13
-4 19 -7 12 -8 -7 -1 -10 -8 -7 -16 4 -10 13 -13 25 -10 11 4 19 2 19 -2 0 -8
-86 -38 -101 -35 -8 1 -103 -14 -198 -32 -88 -16 -146 -13 -193 10 -15 8 -41
14 -58 14 -22 0 -29 4 -23 13 12 20 12 36 0 70 l-12 32 -5 -55 c-5 -50 -7 -55
-30 -56 -14 -1 -33 -4 -42 -8 -11 -5 -21 -1 -30 13 -7 12 -17 21 -21 21 -5 0
-22 9 -38 21 -16 11 -29 16 -29 10 0 -22 -18 -10 -25 16 -5 21 -8 24 -15 13
-5 -8 -12 -11 -15 -8 -13 13 -23 133 -12 153 10 19 10 19 17 1 7 -21 36 -30
46 -15 3 5 14 9 25 9 10 0 19 4 19 10 0 16 68 29 103 19 46 -13 54 -12 60 13
10 35 -3 68 -29 74 -13 3 -32 20 -43 37 -12 18 -21 26 -21 19 0 -10 -13 -11
-52 -6 -29 4 -63 11 -75 15 -14 5 -25 4 -29 -2 -4 -6 -15 -2 -29 11 -18 17
-23 31 -21 59 3 32 8 37 42 47 22 6 68 10 104 9 36 -1 74 2 85 8 58 30 214 33
256 4z m6258 -10 c0 -21 -1 -21 -9 -2 -12 28 -12 37 0 30 6 -3 10 -16 9 -28z
m-4755 -18 c-3 -5 -10 -7 -15 -3 -5 3 -7 10 -3 15 3 5 10 7 15 3 5 -3 7 -10 3
-15z m5243 -295 c-3 -3 -12 -4 -19 -1 -8 3 -5 6 6 6 11 1 17 -2 13 -5z m-6362
-143 c3 -5 1 -12 -5 -16 -5 -3 -10 1 -10 9 0 18 6 21 15 7z m510 -11 c7 0 16
-16 19 -35 4 -19 12 -35 17 -35 6 0 4 -6 -4 -14 -10 -11 -13 -32 -10 -80 3
-46 1 -66 -7 -66 -6 0 -9 -4 -6 -9 3 -5 0 -11 -8 -14 -10 -4 -15 14 -20 80 -3
47 -11 93 -16 102 -6 12 -5 32 2 57 6 21 13 33 15 27 3 -7 11 -13 18 -13z
m1148 -7 c-7 -2 -19 -2 -25 0 -7 3 -2 5 12 5 14 0 19 -2 13 -5z m-414 -24 c23
-1 22 -2 -9 -10 -44 -11 -111 -2 -89 12 8 5 27 7 43 4 16 -3 40 -5 55 -6z
m4840 -79 c11 -24 11 -24 -3 -6 -9 11 -16 24 -16 30 0 12 5 7 19 -24z m29 -5
c-3 -3 -9 2 -12 12 -6 14 -5 15 5 6 7 -7 10 -15 7 -18z m-4443 -66 c10 0 24
-4 30 -9 7 -6 44 -5 96 1 46 6 91 11 99 11 8 0 92 0 185 -1 94 0 178 0 188 -1
25 0 25 0 225 4 102 2 184 0 188 -5 3 -5 21 -9 40 -9 21 0 33 -4 29 -10 -3 -5
-2 -10 3 -10 14 0 89 -69 76 -70 -9 0 -8 -9 0 -35 7 -19 15 -38 19 -41 15 -16
7 -56 -13 -61 -25 -7 -26 -23 -2 -24 30 -2 -70 -29 -143 -39 -132 -18 -348
-29 -367 -19 -10 6 -16 14 -13 19 3 4 -2 15 -10 24 -9 9 -11 17 -5 21 16 10
12 24 -15 41 -23 15 -27 15 -50 0 -27 -18 -34 -63 -13 -84 6 -6 10 -13 7 -15
-3 -4 -95 -23 -199 -43 -88 -16 -143 -23 -201 -23 -36 -1 -88 -8 -115 -16 -27
-8 -51 -14 -54 -14 -2 0 -6 -4 -8 -9 -2 -6 7 -10 20 -10 13 0 84 -5 158 -13
152 -14 172 -14 652 -6 307 6 348 5 362 -9 15 -14 16 -13 17 8 0 22 1 22 9 3
5 -11 8 -63 8 -115 -1 -71 -3 -85 -8 -55 -5 29 -8 33 -9 15 -3 -23 -4 -22 -12
8 -5 17 -12 32 -15 32 -3 0 -3 -9 1 -19 5 -17 2 -19 -24 -15 -23 4 -32 0 -41
-15 -6 -12 -18 -21 -28 -21 -9 0 -29 -6 -44 -14 -42 -22 -238 -42 -278 -28
-47 17 -78 15 -140 -9 -41 -15 -95 -22 -219 -29 -90 -5 -171 -12 -180 -15 -9
-2 -91 -7 -183 -9 -92 -3 -171 -7 -176 -10 -5 -3 -30 -6 -58 -7 -27 -1 -57 -6
-66 -11 -10 -5 -95 -13 -190 -17 -95 -5 -243 -17 -328 -26 -120 -14 -169 -15
-215 -7 -33 6 -73 9 -90 7 -41 -6 -93 12 -106 36 -16 30 -5 188 16 229 11 21
20 71 25 133 8 104 18 123 55 111 68 -21 97 5 115 103 7 37 23 91 36 119 l24
51 98 8 c53 4 105 7 115 7 178 -1 286 -5 301 -11 11 -4 40 -3 65 2 25 4 82 11
126 13 44 3 85 7 90 9 6 3 35 2 65 -1 30 -3 64 -5 75 -5z m1202 -36 c-3 -10
-5 -2 -5 17 0 19 2 27 5 18 2 -10 2 -26 0 -35z m3276 -31 c4 -2 7 -12 7 -22 0
-10 5 -22 10 -25 6 -4 7 -11 4 -17 -4 -6 -20 20 -35 57 -31 73 -38 102 -11 45
9 -19 20 -36 25 -38z m38 41 c-4 -15 -13 -29 -20 -31 -9 -3 -8 4 3 27 20 38
27 40 17 4z m-3303 -133 c0 -30 -3 -75 -7 -100 -7 -34 -9 -14 -9 80 0 76 3
115 8 100 4 -14 8 -50 8 -80z m3289 68 c-3 -8 -6 -5 -6 6 -1 11 2 17 5 13 3
-3 4 -12 1 -19z m-5996 -51 c13 -6 40 -28 59 -48 19 -20 45 -41 57 -48 13 -6
27 -29 34 -51 10 -33 9 -43 -5 -65 -10 -14 -24 -29 -33 -32 -9 -4 -26 -16 -37
-27 -18 -18 -21 -34 -22 -116 -1 -52 -5 -127 -9 -166 -5 -50 -4 -73 4 -78 18
-12 13 -21 -21 -37 -73 -36 -91 -38 -465 -69 -157 -13 -242 -13 -284 1 -57 18
-99 39 -99 49 0 6 -9 19 -20 30 -40 40 -98 173 -116 264 -2 10 -10 26 -19 36
-11 12 -15 34 -13 74 2 50 5 56 24 56 13 0 24 -8 27 -21 5 -20 6 -20 39 -2 18
10 42 19 53 21 11 1 40 5 65 8 25 4 53 13 63 22 16 14 15 17 -25 44 -24 15
-53 28 -64 28 -12 0 -24 7 -28 15 -3 8 -21 23 -40 32 -19 9 -33 20 -30 25 3 4
10 6 15 3 5 -4 9 -2 9 4 0 21 114 34 240 27 177 -9 187 -12 206 -51 11 -25 26
-37 59 -48 31 -10 47 -11 55 -3 7 7 10 6 10 -4 1 -11 3 -10 11 3 6 9 13 15 17
13 4 -2 16 15 27 39 15 35 27 47 59 59 78 28 159 34 197 13z m6068 -186 c0
-14 -1 -14 -6 -1 -3 8 -10 24 -15 35 -9 20 -9 20 6 1 9 -11 16 -27 15 -35z
m-3336 -834 c45 -15 55 -33 55 -107 0 -19 -2 -26 -5 -15 -2 11 -7 27 -10 35
-3 8 -5 19 -4 24 1 4 -1 17 -5 28 -5 15 -12 18 -32 14 -18 -4 -22 -3 -14 2 11
7 9 10 -6 14 -15 4 -19 2 -15 -8 3 -9 -2 -14 -13 -15 -18 -1 -18 -2 0 -6 15
-4 16 -7 5 -15 -10 -7 -7 -8 11 -4 21 4 26 1 26 -14 0 -11 -4 -20 -8 -20 -4 0
-8 5 -8 10 0 6 -3 10 -7 10 -5 0 -9 -55 -10 -122 -1 -85 1 -118 8 -108 8 11 9
8 3 -10 -8 -32 -10 -34 -26 -24 -7 5 -20 9 -28 10 -43 3 -50 5 -50 13 0 5 10
12 23 15 l22 7 -25 10 c-14 6 -34 8 -44 5 -11 -3 -28 2 -37 10 -16 14 -19 14
-38 -5 -11 -11 -18 -26 -16 -33 3 -7 1 -18 -3 -24 -10 -17 -103 -67 -110 -60
-3 3 -14 -1 -24 -10 -15 -14 -34 -16 -123 -11 -78 3 -113 1 -133 -9 -15 -7
-70 -16 -122 -19 -52 -4 -124 -12 -160 -20 -36 -7 -103 -16 -150 -20 -47 -3
-128 -10 -180 -16 -52 -5 -119 -11 -148 -14 -30 -3 -58 -7 -63 -10 -5 -3 -86
-6 -181 -6 -95 0 -186 -5 -203 -10 -16 -5 -86 -21 -155 -36 -124 -27 -127 -27
-570 -28 -268 -1 -447 2 -451 7 -4 6 -15 5 -27 -3 -19 -12 -24 -10 -46 10 -15
14 -33 22 -44 19 -11 -3 -28 0 -38 6 -10 6 -54 11 -96 11 -76 0 -78 1 -116 38
-30 29 -38 44 -34 63 2 13 0 24 -6 24 -6 0 -8 8 -5 18 3 12 -4 25 -21 36 -14
9 -26 13 -26 9 0 -5 -9 7 -20 25 -18 30 -34 128 -32 205 1 16 -4 27 -12 27
-18 0 -15 32 4 47 13 11 12 14 -8 19 -27 8 -26 32 3 48 11 6 23 16 27 21 4 6
8 7 8 4 0 -4 17 -3 37 2 38 8 167 20 423 39 74 5 153 12 175 15 248 30 300 37
319 42 11 3 84 6 161 7 78 1 146 5 151 9 6 3 127 7 270 8 152 1 267 6 279 12
23 12 311 26 655 32 129 2 260 8 291 14 34 6 72 6 96 1 24 -6 53 -6 72 0 17 5
29 5 26 0 -3 -4 2 -10 10 -14 8 -3 12 -12 9 -21 -3 -8 -1 -15 4 -15 13 0 43
41 37 50 -2 4 8 7 23 8 15 0 56 6 92 11 98 17 271 14 290 -4 10 -10 11 -15 2
-15 -7 0 -12 5 -12 11 0 6 -7 4 -15 -5 -17 -16 -21 -41 -5 -31 6 3 10 0 10 -7
0 -10 2 -10 9 1 11 17 32 5 25 -14 -3 -7 -1 -22 4 -31 8 -15 11 -13 17 14 3
17 4 36 0 42 -3 5 -2 27 2 47 6 28 9 0 11 -99 l3 -137 42 -14z m3094 121 c-2
-24 -4 -5 -4 42 0 47 2 66 4 43 2 -24 2 -62 0 -85z m142 7 c0 -5 -4 -3 -9 5
-5 8 -9 22 -9 30 0 16 17 -16 18 -35z m-152 -97 c-3 -8 -6 -5 -6 6 -1 11 2 17
5 13 3 -3 4 -12 1 -19z m0 -70 c-3 -7 -5 -2 -5 12 0 14 2 19 5 13 2 -7 2 -19
0 -25z m-10 -55 c-3 -10 -5 -4 -5 12 0 17 2 24 5 18 2 -7 2 -21 0 -30z m120
-35 c-3 -8 -6 -5 -6 6 -1 11 2 17 5 13 3 -3 4 -12 1 -19z m-133 -32 c-3 -21
-8 -35 -11 -32 -2 2 -1 20 3 40 3 21 8 35 11 32 2 -2 1 -20 -3 -40z m-2997
-98 c-3 -7 -5 -2 -5 12 0 14 2 19 5 13 2 -7 2 -19 0 -25z m0 -100 c-2 -13 -4
-3 -4 22 0 25 2 35 4 23 2 -13 2 -33 0 -45z"/>
<path d="M1391 8546 c-10 -11 -9 -16 5 -24 9 -5 23 -26 30 -47 13 -39 10 -60
-7 -50 -5 4 -9 5 -10 3 -7 -37 -7 -122 0 -137 8 -13 8 -20 0 -23 -5 -2 -1 -13
11 -25 11 -12 20 -29 20 -37 0 -8 7 -22 17 -31 13 -13 14 -18 3 -25 -10 -6 -9
-22 5 -83 10 -42 15 -87 13 -102 -4 -17 -1 -28 8 -32 10 -4 14 -25 14 -74 0
-105 0 -105 144 -101 158 4 156 2 150 155 -3 61 -9 183 -15 269 -5 86 -9 161
-8 165 6 38 -4 86 -24 109 -19 22 -37 29 -93 37 -74 10 -105 13 -171 15 -39 2
-43 5 -43 27 0 28 -29 35 -49 11z m106 -588 c-3 -8 -6 -5 -6 6 -1 11 2 17 5
13 3 -3 4 -12 1 -19z"/>
<path d="M1870 8442 c-21 -17 -23 -26 -21 -77 1 -32 7 -81 12 -109 12 -64 49
-380 49 -423 0 -19 9 -42 23 -57 21 -23 28 -25 160 -28 165 -5 161 -9 146 113
-6 46 -13 185 -16 309 -6 279 2 265 -146 274 -56 3 -120 9 -142 12 -31 4 -46
1 -65 -14z"/>
<path d="M2631 8391 c-25 -25 -25 -49 -5 -156 26 -136 42 -265 49 -387 4 -70
12 -121 19 -127 6 -5 51 -15 99 -21 47 -6 107 -14 131 -19 38 -7 48 -5 66 11
17 16 20 28 16 61 -6 45 -20 348 -21 437 0 30 3 76 7 103 6 38 5 47 -7 47 -8
0 -15 4 -15 9 0 22 -33 39 -87 45 -190 19 -231 18 -252 -3z"/>
<path d="M3076 8373 c-13 -7 -26 -20 -30 -29 -4 -9 -13 -14 -21 -10 -11 4 -15
-2 -15 -25 0 -23 4 -30 15 -26 10 4 16 -3 19 -26 23 -143 37 -245 52 -385 17
-156 19 -164 45 -186 26 -22 91 -32 254 -40 11 -1 28 8 37 20 15 19 16 34 7
145 -6 68 -9 205 -8 304 1 99 -2 190 -6 202 -15 47 -59 61 -198 65 -87 2 -136
-1 -151 -9z"/>
<path d="M1949 7608 c-22 -42 22 -635 50 -669 14 -17 36 -20 170 -26 l154 -6
-6 94 c-4 52 -12 146 -17 209 -6 63 -14 171 -19 238 -6 89 -13 128 -24 139
-14 14 -47 19 -239 38 -52 5 -58 3 -69 -17z"/>
<path d="M2706 7562 c-4 -11 1 -109 9 -219 9 -109 20 -251 24 -316 5 -81 12
-122 22 -131 10 -10 53 -15 154 -18 l140 -3 3 75 c2 41 -1 122 -7 180 -6 58
-16 168 -22 245 -13 152 -27 195 -62 195 -12 1 -74 3 -139 6 -110 5 -116 5
-122 -14z"/>
<path d="M3150 7539 c-9 -15 -7 -68 5 -207 9 -103 20 -242 25 -310 12 -171 8
-167 162 -176 186 -12 183 -13 174 64 -15 128 -27 253 -42 420 -9 111 -21 190
-28 198 -16 17 -114 32 -208 32 -68 0 -79 -2 -88 -21z"/>
<path d="M3765 6630 c-3 -5 -2 -10 4 -10 5 0 13 5 16 10 3 6 2 10 -4 10 -5 0
-13 -4 -16 -10z"/>
<path d="M2074 6353 c-31 -22 -33 -51 -24 -249 11 -242 28 -402 46 -428 12
-18 27 -20 160 -21 109 0 151 3 160 13 13 12 12 51 -2 137 -7 44 -23 225 -29
335 -8 135 -14 177 -28 188 -7 5 -61 12 -122 16 -60 4 -119 9 -130 12 -11 2
-25 1 -31 -3z"/>
<path d="M2814 6318 c-10 -16 -7 -79 11 -283 8 -93 15 -200 15 -237 0 -37 5
-90 11 -117 10 -47 13 -51 47 -60 102 -26 144 -32 172 -26 17 4 30 2 30 -3 0
-14 35 -21 54 -10 9 5 16 17 16 26 0 10 4 22 9 28 5 5 5 49 0 104 -10 106 -11
118 -39 346 -11 88 -20 171 -20 185 0 49 -23 57 -167 58 -93 1 -134 -2 -139
-11z"/>
<path d="M2127 5498 c-17 -26 -13 -122 17 -443 18 -200 21 -212 44 -222 9 -5
82 -6 162 -3 l145 5 0 75 c-1 41 -6 131 -13 200 -7 69 -17 176 -22 238 -6 63
-15 122 -20 132 -8 15 -27 19 -112 24 -57 3 -122 8 -145 11 -36 6 -43 4 -56
-17z"/>
<path d="M4364 9503 c-4 -10 -6 -22 -4 -28 1 -5 3 -19 4 -30 1 -11 7 -19 14
-18 7 2 9 -4 5 -14 -5 -13 -2 -15 18 -10 13 4 30 7 38 7 17 0 5 15 -12 15 -7
0 -11 8 -11 18 1 11 -5 17 -17 17 -16 0 -18 4 -11 18 10 18 5 42 -8 42 -4 0
-11 -8 -16 -17z"/>
<path d="M4330 9470 c0 -5 5 -10 10 -10 6 0 10 5 10 10 0 6 -4 10 -10 10 -5 0
-10 -4 -10 -10z"/>
<path d="M4941 9356 c19 -17 89 -54 89 -48 0 9 -72 52 -86 52 -4 0 -5 -2 -3
-4z"/>
<path d="M5050 9356 c0 -2 7 -7 16 -10 8 -3 12 -2 9 4 -6 10 -25 14 -25 6z"/>
<path d="M4845 9337 c23 -19 45 -22 45 -7 0 6 -6 10 -14 10 -8 0 -23 3 -33 6
-16 6 -16 5 2 -9z"/>
<path d="M4403 9316 c0 -9 6 -12 16 -8 13 5 14 3 3 -10 -10 -13 -10 -17 4 -22
26 -10 76 -7 69 4 -4 6 -16 10 -28 8 -16 -2 -23 3 -25 20 -4 24 -39 32 -39 8z"/>
<path d="M4900 9316 c0 -10 80 -47 89 -42 5 3 20 -3 34 -14 26 -20 72 -27 81
-11 3 4 -5 6 -17 4 -24 -4 -55 12 -44 23 3 4 15 1 24 -7 16 -12 17 -12 6 2 -9
10 -26 15 -50 14 -43 -3 -61 4 -43 15 9 5 5 8 -11 8 -13 0 -34 3 -46 7 -13 4
-23 5 -23 1z"/>
<path d="M4598 9303 c7 -3 16 -2 19 1 4 3 -2 6 -13 5 -11 0 -14 -3 -6 -6z"/>
<path d="M4067 9250 c-40 -44 -32 -61 8 -18 19 20 35 39 35 42 0 14 -19 4 -43
-24z"/>
<path d="M4900 9265 c14 -8 31 -14 39 -15 8 0 19 -6 25 -14 14 -18 56 -31 56
-17 0 6 -5 10 -12 9 -7 -2 -12 2 -13 9 0 19 -13 26 -45 25 -16 0 -30 4 -30 9
0 5 -10 9 -22 9 -23 -1 -23 -1 2 -15z"/>
<path d="M3945 9250 c10 -11 20 -18 23 -15 7 6 -18 35 -31 35 -5 0 -2 -9 8
-20z"/>
<path d="M5146 9235 c4 -8 8 -15 10 -15 2 0 4 7 4 15 0 8 -4 15 -10 15 -5 0
-7 -7 -4 -15z"/>
<path d="M5086 9223 c-6 -6 41 -43 57 -43 4 0 2 9 -5 20 -7 10 -14 17 -17 15
-2 -3 -9 0 -16 5 -7 5 -15 7 -19 3z"/>
<path d="M5190 9211 c0 -5 5 -13 10 -16 6 -3 10 -2 10 4 0 5 -4 13 -10 16 -5
3 -10 2 -10 -4z"/>
<path d="M4020 9188 c0 -9 -6 -18 -14 -21 -7 -3 -16 -18 -19 -34 -3 -15 -9
-37 -13 -48 l-7 -20 17 20 18 20 -7 -20 c-7 -24 -48 -85 -53 -80 -2 2 4 15 13
29 23 34 2 34 -24 0 -19 -25 -20 -28 -5 -39 9 -6 14 -18 11 -26 -4 -10 -6 -9
-6 4 -1 9 -5 17 -10 17 -11 0 -42 -110 -34 -123 6 -10 42 30 43 47 0 6 -7 1
-15 -10 -8 -10 -14 -14 -14 -9 0 14 28 63 29 50 0 -5 18 25 40 67 22 43 37 84
34 92 -3 8 5 28 17 45 18 24 20 34 11 43 -9 9 -12 8 -12 -4z"/>
<path d="M5040 9193 c0 -9 62 -53 75 -53 5 0 17 -8 28 -17 19 -17 20 -17 10 0
-10 20 -113 83 -113 70z"/>
<path d="M5330 9196 c0 -2 8 -10 18 -17 15 -13 16 -12 3 4 -13 16 -21 21 -21
13z"/>
<path d="M4984 9156 c22 -18 44 -32 50 -30 6 2 38 -14 71 -36 32 -21 60 -38
62 -37 10 11 -14 46 -45 64 -20 12 -57 34 -82 50 l-45 27 18 -27 c9 -14 17
-30 17 -34 0 -4 -5 0 -11 10 -5 9 -24 24 -42 32 -31 16 -31 15 7 -19z"/>
<path d="M4088 9143 c-35 -41 -80 -119 -82 -139 0 -12 -5 -22 -10 -21 -11 2
-67 -104 -60 -114 2 -4 -3 -15 -12 -23 -8 -9 -11 -16 -6 -16 5 0 0 -29 -12
-65 -12 -41 -23 -60 -28 -52 -5 8 -8 7 -8 -5 0 -10 4 -18 10 -18 6 0 7 -28 3
-77 -5 -56 -3 -74 5 -69 7 4 12 20 12 36 0 16 12 61 26 101 19 53 24 77 16 89
-7 11 -6 25 3 45 8 17 14 23 14 15 1 -12 4 -11 12 3 5 9 7 21 4 27 -7 12 53
132 71 143 8 5 12 12 9 18 -4 5 1 9 10 9 12 0 15 5 11 16 -5 14 -4 15 8 5 12
-10 13 -8 9 10 -4 15 -3 20 6 15 7 -5 10 -2 9 6 -2 7 2 12 9 11 7 -2 10 4 7
12 -4 8 -2 15 4 15 5 0 13 7 16 16 4 11 2 15 -8 11 -7 -3 -18 -1 -23 4 -6 6
-15 3 -25 -8z m-15 -67 c-10 -14 -22 -26 -26 -26 -5 0 1 14 13 31 12 16 24 28
27 25 3 -2 -3 -16 -14 -30z m-47 -64 c-18 -16 -18 -16 -6 6 6 13 14 21 18 18
3 -4 -2 -14 -12 -24z m-89 -264 c-3 -8 -6 -5 -6 6 -1 11 2 17 5 13 3 -3 4 -12
1 -19z"/>
<path d="M5170 9150 c0 -6 7 -13 15 -16 8 -4 12 -10 9 -15 -11 -19 -14 -58 -4
-64 6 -4 8 -10 6 -14 -3 -4 4 -14 15 -22 11 -8 50 -35 86 -61 36 -27 69 -48
73 -48 5 0 17 -3 27 -6 10 -4 1 10 -21 30 -21 20 -42 36 -46 36 -4 0 -15 11
-25 24 -11 14 -36 32 -56 42 -35 15 -56 40 -44 52 3 3 5 0 5 -6 0 -7 7 -12 15
-12 8 0 15 -6 15 -12 0 -9 4 -8 10 2 7 11 5 19 -7 28 -9 6 -12 12 -7 12 16 0
33 -21 28 -35 -3 -7 6 -19 20 -28 14 -9 34 -27 46 -39 11 -12 20 -17 20 -11 0
6 -14 23 -31 37 -17 14 -28 30 -25 34 3 5 -9 23 -27 39 -38 36 -97 68 -97 53z
m50 -40 c0 -5 -5 -10 -11 -10 -5 0 -7 5 -4 10 3 6 8 10 11 10 2 0 4 -4 4 -10z"/>
<path d="M5520 9141 c0 -6 4 -13 10 -16 6 -3 7 1 4 9 -7 18 -14 21 -14 7z"/>
<path d="M5130 9010 c37 -31 50 -36 50 -20 0 11 -58 50 -75 50 -5 0 6 -13 25
-30z"/>
<path d="M4130 8985 c-7 -9 -11 -17 -9 -20 3 -2 10 5 17 15 14 24 10 26 -8 5z"/>
<path d="M5040 8986 c0 -2 8 -10 18 -17 15 -13 16 -12 3 4 -13 16 -21 21 -21
13z"/>
<path d="M5190 8983 c0 -19 49 -63 64 -57 8 3 17 1 21 -5 3 -6 16 -10 28 -10
17 1 18 2 4 6 -9 2 -15 8 -12 13 3 4 -4 10 -15 13 -11 3 -22 1 -25 -4 -3 -4
-19 6 -35 24 -16 18 -30 27 -30 20z"/>
<path d="M4034 8909 c-15 -23 -30 -36 -32 -30 -2 6 -8 9 -13 5 -16 -9 -10 -22
9 -19 9 2 20 4 23 4 6 1 52 81 46 81 -2 0 -17 -18 -33 -41z"/>
<path d="M5329 8887 c9 -12 10 -17 2 -17 -7 0 -9 -5 -6 -11 4 -6 13 -8 20 -5
18 7 67 -33 59 -47 -5 -9 -4 -9 6 0 16 15 8 27 -48 65 -26 17 -41 24 -33 15z"/>
<path d="M5519 8883 c14 -27 14 -36 0 -28 -7 5 -8 1 -1 -11 5 -11 17 -36 26
-57 l16 -39 -27 20 c-16 10 -39 24 -53 31 l-25 12 25 -18 c53 -39 80 -65 75
-74 -4 -5 1 -6 10 -3 11 5 14 2 9 -9 -4 -12 -14 -15 -37 -10 -18 3 -36 6 -41
7 -5 0 -11 -5 -14 -13 -2 -8 -1 -11 4 -8 5 3 20 -1 34 -10 17 -10 19 -12 5 -8
-13 4 -6 -9 23 -38 31 -31 44 -54 47 -78 4 -46 20 -113 45 -183 11 -33 18 -61
16 -63 -5 -5 -42 84 -61 149 -9 31 -23 62 -31 69 -14 12 -14 9 0 -25 19 -45
19 -49 7 -41 -18 11 20 -156 50 -223 41 -89 105 -161 159 -177 l25 -7 -24 21
c-13 11 -21 21 -16 21 4 0 -4 15 -17 33 -26 33 -88 150 -88 164 0 8 51 -75 68
-112 13 -26 91 -115 102 -115 4 0 6 9 3 21 -4 12 0 25 8 30 8 5 9 9 3 9 -6 0
-9 10 -7 23 7 36 -22 143 -76 277 -57 143 -65 140 -21 -8 24 -77 28 -106 20
-120 -9 -15 -10 -14 -9 8 3 43 -1 61 -11 55 -6 -3 -7 1 -4 9 6 17 -35 133 -73
208 -14 26 -21 53 -17 59 4 7 3 9 -4 5 -6 -3 -14 4 -17 16 -14 45 -96 233
-107 243 -7 6 -6 2 1 -12z m80 -473 c6 -19 7 -30 2 -25 -5 6 -13 24 -17 40 -9
39 0 30 15 -15z"/>
<path d="M3884 8785 c-9 -50 1 -54 14 -5 5 22 6 40 1 40 -4 0 -11 -16 -15 -35z"/>
<path d="M5430 8806 c0 -2 8 -10 18 -17 15 -13 16 -12 3 4 -13 16 -21 21 -21
13z"/>
<path d="M5480 8766 c0 -3 9 -10 20 -16 11 -6 20 -8 20 -6 0 3 -9 10 -20 16
-11 6 -20 8 -20 6z"/>
<path d="M5410 8710 c0 -5 5 -10 11 -10 5 0 7 5 4 10 -3 6 -8 10 -11 10 -2 0
-4 -4 -4 -10z"/>
<path d="M5809 8675 c-10 -17 -4 -69 13 -103 14 -27 14 -32 2 -32 -11 0 -12
-4 -4 -19 7 -14 7 -22 -1 -26 -17 -11 -4 -92 30 -183 21 -57 32 -109 35 -165
6 -86 22 -115 56 -101 8 4 27 9 43 12 23 4 27 9 26 36 l-1 31 -14 -30 c-13
-29 -14 -28 -10 27 3 32 0 60 -5 63 -5 4 -7 25 -4 48 4 35 2 31 -14 -21 -10
-35 -24 -69 -30 -75 -6 -6 -3 14 8 45 l19 56 -23 66 c-13 36 -19 63 -14 60 5
-3 9 -11 9 -18 0 -8 6 -19 14 -25 13 -11 14 -4 11 44 -6 70 -73 245 -92 238
-8 -3 -11 0 -8 9 3 8 -2 21 -12 29 -17 13 -17 13 -3 -6 14 -18 14 -19 -2 -7
-9 8 -18 23 -20 35 -2 12 -6 18 -9 12z m155 -522 c-4 -16 -10 -32 -15 -37 -5
-5 -4 6 1 25 6 18 10 35 10 36 0 2 2 3 5 3 3 0 2 -12 -1 -27z m-57 -85 c-3 -7
-5 -2 -5 12 0 14 2 19 5 13 2 -7 2 -19 0 -25z"/>
<path d="M5457 8659 c6 -8 26 -22 45 -32 l33 -19 -25 21 c-14 12 -34 27 -45
33 -17 9 -18 9 -8 -3z"/>
<path d="M5861 8668 c-1 -5 10 -29 24 -55 14 -27 32 -66 41 -88 15 -39 16 -39
31 -20 l16 20 -8 -20 c-9 -24 -9 -24 6 -97 6 -34 15 -55 21 -52 6 4 7 19 4 35
-3 16 -1 29 4 29 6 0 8 11 4 24 -4 17 2 31 26 55 28 28 30 32 13 37 -10 3 -30
12 -45 20 -26 14 -28 14 -29 -3 0 -11 -6 -4 -15 17 l-14 35 5 -49 c3 -27 3
-48 1 -45 -10 11 -34 99 -25 94 5 -4 9 -1 9 4 0 6 -5 11 -11 11 -5 0 -7 4 -4
10 3 6 -1 7 -9 4 -11 -4 -16 0 -16 11 0 9 -4 14 -9 11 -5 -4 -12 0 -14 6 -3 7
-6 10 -6 6z m129 -194 c0 -8 -4 -12 -10 -9 -5 3 -10 10 -10 16 0 5 5 9 10 9 6
0 10 -7 10 -16z"/>
<path d="M4940 8633 c-43 -8 -173 -54 -212 -76 -40 -22 -50 -38 -20 -31 9 2
53 11 97 19 44 9 82 20 83 26 2 5 15 9 28 9 14 0 43 9 64 20 33 17 46 19 82
10 54 -12 75 -13 63 -1 -25 22 -123 35 -185 24z m25 -23 c3 -5 1 -10 -4 -10
-6 0 -11 5 -11 10 0 6 2 10 4 10 3 0 8 -4 11 -10z"/>
<path d="M5525 8589 c24 -42 65 -66 65 -38 0 5 -4 8 -9 4 -5 -3 -16 3 -23 13
-17 24 -45 41 -33 21z"/>
<path d="M4848 8508 c-18 -10 -40 -27 -50 -38 -9 -11 -19 -20 -22 -20 -13 0
-54 -50 -45 -56 6 -3 32 -3 59 1 35 5 50 3 50 -5 0 -6 -4 -8 -10 -5 -5 3 -10
2 -10 -3 0 -6 7 -13 16 -16 8 -3 12 -2 9 3 -3 5 4 12 15 16 11 4 18 11 15 16
-3 5 0 6 8 3 20 -7 97 14 97 27 0 7 10 9 25 5 16 -4 25 -2 25 5 0 7 9 9 23 6
12 -3 33 1 47 8 14 8 19 14 12 15 -7 0 -10 5 -7 10 22 36 -198 59 -257 28z
m32 -53 c0 -9 -9 -15 -21 -15 -18 0 -19 2 -9 15 7 8 16 15 21 15 5 0 9 -7 9
-15z"/>
<path d="M3939 8494 c-1 -16 0 -46 1 -66 1 -22 -3 -38 -9 -38 -6 0 -11 -9 -11
-20 0 -21 7 -25 27 -12 8 5 11 31 8 80 -3 73 -14 111 -16 56z"/>
<path d="M4398 8500 c-16 -5 -28 -6 -28 -3 0 3 -6 1 -12 -5 -8 -5 -22 -6 -33
-1 -11 4 -42 8 -69 8 -54 1 -59 -7 -8 -11 18 -1 32 -6 32 -10 0 -12 -45 -10
-73 3 -32 14 -89 -11 -118 -52 -25 -36 -11 -38 19 -4 12 14 28 25 34 26 7 0
29 2 48 5 19 2 90 5 158 6 123 1 139 7 96 33 -12 8 -29 10 -46 5z"/>
<path d="M4268 8411 c-60 -13 -159 -101 -113 -101 9 0 13 -4 10 -10 -9 -14 19
-12 33 2 9 9 12 9 12 1 0 -8 10 -9 32 -2 18 5 48 9 65 9 18 0 33 4 33 10 0 10
35 8 46 -3 3 -3 13 1 22 9 12 13 16 13 23 2 7 -10 9 -10 9 0 0 6 11 12 25 12
14 0 25 5 25 10 0 19 21 10 30 -12 10 -23 10 -23 7 2 -5 53 -152 93 -259 71z
m-4 -59 c3 -5 -1 -9 -9 -9 -8 0 -12 4 -9 9 3 4 7 8 9 8 2 0 6 -4 9 -8z"/>
<path d="M4686 8343 c-4 -9 -1 -20 6 -24 36 -22 48 -35 48 -49 0 -21 19 -40
35 -34 7 3 16 1 20 -5 10 -17 23 -13 21 7 -1 16 -23 41 -38 42 -4 0 -5 -7 -2
-15 4 -8 1 -15 -5 -15 -5 0 -16 19 -23 43 -18 62 -48 87 -62 50z"/>
<path d="M6011 8344 c0 -11 3 -14 6 -6 3 7 2 16 -1 19 -3 4 -6 -2 -5 -13z"/>
<path d="M6041 8304 c0 -11 3 -14 6 -6 3 7 2 16 -1 19 -3 4 -6 -2 -5 -13z"/>
<path d="M5990 8289 c0 -14 7 -50 16 -80 16 -53 17 -53 26 -26 6 15 7 45 2 65
l-7 37 -7 -30 -8 -30 -1 30 c-2 40 -21 71 -21 34z"/>
<path d="M3985 8245 c4 -22 11 -44 16 -49 13 -14 11 3 -7 49 l-15 40 6 -40z"/>
<path d="M3951 8243 c-1 -12 37 -135 60 -198 6 -16 24 -73 39 -125 36 -125 72
-222 88 -238 6 -7 12 -27 12 -44 0 -17 3 -29 6 -25 10 9 6 124 -5 144 -5 10
-19 47 -31 83 -12 36 -37 98 -56 138 -19 40 -34 78 -34 84 0 9 -29 81 -65 163
-8 17 -14 24 -14 18z"/>
<path d="M6060 8160 c0 -5 5 -10 11 -10 5 0 7 5 4 10 -3 6 -8 10 -11 10 -2 0
-4 -4 -4 -10z"/>
<path d="M4766 8145 c-6 -17 14 -57 27 -52 5 1 8 6 7 11 -3 17 28 26 55 16 19
-7 25 -15 21 -26 -4 -10 -1 -14 6 -12 6 2 13 16 15 30 3 21 -2 28 -28 37 -46
16 -96 14 -103 -4z"/>
<path d="M6092 8140 c-14 -23 -5 -26 20 -6 10 7 15 16 11 19 -10 11 -18 8 -31
-13z"/>
<path d="M6261 8114 c-17 -22 -31 -29 -62 -33 -3 -1 -17 -10 -30 -22 -22 -19
-22 -21 -4 -17 11 1 23 8 27 13 5 6 8 5 8 -3 0 -7 -7 -15 -15 -18 -8 -4 -15
-10 -15 -16 0 -5 6 -6 13 -3 6 4 3 0 -7 -9 -21 -17 -17 -20 34 -30 14 -3 3 -3
-25 -1 -112 7 31 -33 205 -59 l35 -5 -1 67 c-2 97 -3 99 -18 115 -8 8 -33 17
-56 21 -23 3 -38 11 -35 16 14 23 -35 8 -54 -16z m6 -140 c-3 -3 -12 -4 -19
-1 -8 3 -5 6 6 6 11 1 17 -2 13 -5z"/>
<path d="M6210 8117 c-14 -6 -31 -17 -38 -24 -7 -7 -18 -13 -24 -13 -6 0 -9
-3 -6 -6 4 -3 20 2 38 11 18 9 34 14 37 11 6 -5 33 18 33 28 0 8 -11 6 -40 -7z"/>
<path d="M4842 8037 c-12 -13 -19 -26 -16 -30 6 -6 17 3 43 36 20 25 -2 21
-27 -6z"/>
<path d="M5045 8020 c-3 -6 1 -13 10 -16 19 -8 30 0 20 15 -8 14 -22 14 -30 1z"/>
<path d="M6098 8023 c7 -3 16 -2 19 1 4 3 -2 6 -13 5 -11 0 -14 -3 -6 -6z"/>
<path d="M4565 7970 c3 -5 11 -10 16 -10 6 0 7 5 4 10 -3 6 -11 10 -16 10 -6
0 -7 -4 -4 -10z"/>
<path d="M4390 7950 c0 -5 5 -10 10 -10 6 0 10 5 10 10 0 6 -4 10 -10 10 -5 0
-10 -4 -10 -10z"/>
<path d="M5015 7913 c-41 -9 -171 -42 -203 -52 -18 -5 -35 -10 -37 -10 -3 0
-29 -4 -58 -10 -28 -6 -61 -10 -72 -10 -35 2 -155 -19 -185 -33 -17 -7 -30
-18 -30 -23 0 -6 29 -30 65 -53 49 -33 70 -41 89 -36 14 3 24 9 22 13 -2 3 38
6 90 5 51 0 92 2 89 4 -5 5 88 41 115 45 8 1 14 -4 12 -12 -3 -12 0 -12 13 -1
8 7 18 10 22 7 11 -11 58 21 93 64 43 53 70 92 70 102 0 7 -61 8 -95 0z m-46
-92 c-18 -17 -36 -28 -41 -25 -4 3 -15 -2 -24 -11 -22 -22 -47 -15 -56 15 -7
23 -7 23 -5 -5 3 -45 -34 -58 -172 -60 -105 -1 -114 0 -121 19 -5 12 -9 15 -9
8 -1 -7 -5 -10 -11 -7 -5 3 -10 16 -9 28 0 12 3 16 6 10 2 -7 9 -13 15 -13 6
0 8 7 4 15 -4 10 1 15 14 15 11 0 20 -5 20 -11 0 -7 7 -8 18 -4 9 4 26 7 37 7
10 -1 24 3 31 9 6 5 46 11 88 14 42 3 86 10 97 16 12 6 32 8 45 5 17 -5 24 -2
24 9 0 18 50 21 50 3 0 -7 6 -4 12 7 11 18 13 18 16 3 2 -10 -10 -30 -29 -47z
m-21 -49 c-10 -2 -18 -8 -18 -13 0 -6 -5 -7 -12 -3 -8 5 -6 11 7 20 10 7 23
10 29 6 7 -4 5 -8 -6 -10z"/>
<path d="M6185 7893 c82 -56 189 -80 215 -48 10 13 9 15 -9 15 -14 0 -20 4
-15 12 5 8 2 9 -9 5 -10 -3 -17 -3 -17 2 0 10 -105 41 -137 41 -12 0 -24 -6
-26 -12 -4 -10 -6 -10 -6 0 -1 6 -9 12 -18 12 -11 0 -3 -10 22 -27z"/>
<path d="M4721 7899 c-55 -11 -64 -19 -20 -19 19 1 45 7 59 15 28 16 24 16
-39 4z"/>
<path d="M4351 7864 c-12 -19 -21 -43 -21 -52 0 -10 8 -2 17 16 9 19 22 36 30
39 15 6 18 33 4 33 -5 0 -18 -16 -30 -36z"/>
<path d="M6538 7833 c6 -2 18 -2 25 0 6 3 1 5 -13 5 -14 0 -19 -2 -12 -5z"/>
<path d="M5395 7810 c-3 -5 -1 -10 4 -10 6 0 11 5 11 10 0 6 -2 10 -4 10 -3 0
-8 -4 -11 -10z"/>
<path d="M5700 7771 c0 -16 -5 -42 -10 -57 -6 -14 -7 -43 -3 -63 6 -34 8 -31
19 39 16 95 16 110 4 110 -5 0 -10 -13 -10 -29z"/>
<path d="M5662 7602 c-15 -68 -16 -338 -1 -347 7 -5 8 4 4 28 -4 21 -2 44 5
57 10 18 9 21 -1 15 -10 -7 -11 11 -6 85 4 51 8 112 8 134 1 39 2 40 9 11 7
-27 8 -27 8 -5 0 14 -3 36 -7 50 -7 22 -9 18 -19 -28z"/>
<path d="M5721 7564 c0 -11 3 -14 6 -6 3 7 2 16 -1 19 -3 4 -6 -2 -5 -13z"/>
<path d="M4132 7535 c0 -16 2 -22 5 -12 2 9 2 23 0 30 -3 6 -5 -1 -5 -18z"/>
<path d="M5880 7534 c0 -10 5 -26 10 -34 7 -11 8 -8 6 13 -3 32 -16 49 -16 21z"/>
<path d="M5681 7524 c0 -11 3 -14 6 -6 3 7 2 16 -1 19 -3 4 -6 -2 -5 -13z"/>
<path d="M5956 7507 c3 -10 9 -15 12 -12 3 3 0 11 -7 18 -10 9 -11 8 -5 -6z"/>
<path d="M5807 7415 c6 -89 13 -112 13 -43 0 25 2 61 5 79 4 25 3 29 -4 14 -8
-19 -9 -19 -14 5 -3 14 -3 -11 0 -55z"/>
<path d="M4132 7435 c0 -11 4 -33 8 -50 7 -27 8 -27 8 -5 0 14 -4 36 -8 50 -6
20 -8 21 -8 5z"/>
<path d="M5671 7434 c0 -11 3 -14 6 -6 3 7 2 16 -1 19 -3 4 -6 -2 -5 -13z"/>
<path d="M6000 7421 c0 -6 4 -13 10 -16 6 -3 7 1 4 9 -7 18 -14 21 -14 7z"/>
<path d="M6030 7374 c0 -16 17 -37 27 -33 6 2 2 13 -8 23 -11 11 -19 15 -19
10z"/>
<path d="M6040 7309 c0 -5 9 -9 20 -9 11 0 20 4 20 8 0 4 -9 8 -20 9 -11 1
-20 -2 -20 -8z"/>
<path d="M5841 7284 c0 -11 3 -14 6 -6 3 7 2 16 -1 19 -3 4 -6 -2 -5 -13z"/>
<path d="M4230 7020 c0 -11 4 -20 9 -20 5 0 7 9 4 20 -3 11 -7 20 -9 20 -2 0
-4 -9 -4 -20z"/>
<path d="M4221 6924 c0 -11 3 -14 6 -6 3 7 2 16 -1 19 -3 4 -6 -2 -5 -13z"/>
<path d="M6931 6528 c-1 -16 4 -28 9 -28 6 0 10 -10 11 -22 0 -13 3 -17 6 -10
3 8 1 24 -5 35 -6 12 -13 29 -15 37 -3 8 -6 3 -6 -12z"/>
<path d="M7352 6157 c-20 -26 -20 -53 -2 -214 11 -92 25 -217 31 -276 18 -155
31 -167 194 -170 l70 -2 16 35 c9 19 15 38 13 42 -4 7 -17 107 -29 218 -7 70
-24 215 -31 260 -10 59 -31 99 -56 104 -57 13 -197 15 -206 3z"/>
<path d="M7735 6130 c-16 -18 -17 -32 -11 -137 4 -65 14 -194 22 -287 14 -158
17 -172 40 -195 23 -23 33 -25 125 -27 l99 -2 16 34 c14 30 15 48 5 156 -7 68
-16 157 -21 198 -5 41 -10 104 -11 140 -2 77 -14 117 -39 130 -10 6 -61 10
-113 10 -81 0 -96 -3 -112 -20z"/>
<path d="M7530 5430 c-36 -3 -75 -12 -87 -18 -29 -16 -37 -60 -24 -140 6 -37
16 -114 21 -172 23 -253 31 -305 50 -332 22 -31 26 -84 8 -123 -9 -19 -9 -59
1 -168 24 -278 43 -442 53 -455 18 -22 36 -117 26 -136 -8 -15 -3 -166 17
-498 5 -89 27 -150 60 -172 29 -19 151 -21 240 -4 33 6 74 11 90 10 17 0 87
-3 156 -6 118 -5 128 -4 148 15 25 23 25 32 -4 209 -22 131 -44 309 -46 375
-1 36 -8 67 -17 77 -10 12 -15 40 -14 90 0 82 -14 247 -28 323 -5 28 -11 84
-15 125 -11 153 -18 195 -34 214 -13 14 -16 41 -16 125 -1 58 -11 201 -23 316
-31 293 -31 292 -48 306 -19 16 -205 29 -222 16 -34 -27 -34 -33 8 -509 5 -53
15 -109 23 -125 29 -58 29 -78 -2 -96 -41 -24 -70 -11 -91 44 -13 32 -15 49
-8 63 9 17 7 54 -7 131 -10 55 -36 280 -42 355 -7 100 -14 124 -45 143 -34 22
-56 25 -128 17z m418 -1443 c26 -23 35 -57 16 -57 -8 0 -14 -4 -14 -10 0 -14
-16 -12 -32 3 -7 8 -18 12 -24 10 -17 -6 -39 44 -26 60 16 18 56 15 80 -6z"/>
<path d="M5147 5265 c-8 -8 -17 -11 -21 -8 -3 4 -6 1 -6 -5 0 -23 18 -21 34 3
18 28 15 33 -7 10z"/>
<path d="M6086 5188 c3 -5 10 -6 15 -3 13 9 11 12 -6 12 -8 0 -12 -4 -9 -9z"/>
<path d="M5445 5069 c-11 -17 1 -21 15 -4 8 9 8 15 2 15 -6 0 -14 -5 -17 -11z"/>
<path d="M5558 5033 c-10 -2 -18 -8 -18 -13 0 -14 -51 -21 -66 -9 -11 9 -14 8
-14 -4 0 -35 76 -23 109 17 8 9 12 15 10 15 -2 -1 -12 -3 -21 -6z"/>
<path d="M5420 5019 c0 -5 5 -7 10 -4 6 3 10 8 10 11 0 2 -4 4 -10 4 -5 0 -10
-5 -10 -11z"/>
<path d="M4755 4960 c-3 -5 -2 -10 4 -10 5 0 13 5 16 10 3 6 2 10 -4 10 -5 0
-13 -4 -16 -10z"/>
<path d="M4632 4868 c-17 -11 -32 -27 -32 -35 0 -10 -6 -14 -19 -10 -14 3 -18
1 -14 -9 8 -20 14 -18 62 27 49 46 51 57 3 27z"/>
<path d="M5244 4779 c-4 -7 1 -18 11 -26 24 -17 35 -17 35 2 0 20 -36 39 -46
24z"/>
<path d="M5050 4755 c7 -8 20 -14 29 -14 13 1 13 2 -1 6 -10 2 -18 9 -18 14 0
5 -5 9 -11 9 -8 0 -8 -5 1 -15z"/>
<path d="M5080 4720 c20 -13 33 -13 25 0 -3 6 -14 10 -23 10 -15 0 -15 -2 -2
-10z"/>
<path d="M4360 4360 c0 -5 5 -10 10 -10 6 0 10 5 10 10 0 6 -4 10 -10 10 -5 0
-10 -4 -10 -10z"/>
<path d="M3365 5000 c3 -5 13 -10 21 -10 8 0 12 5 9 10 -3 6 -13 10 -21 10 -8
0 -12 -4 -9 -10z"/>
<path d="M1580 4391 c0 -11 5 -23 10 -26 6 -4 10 5 10 19 0 14 -4 26 -10 26
-5 0 -10 -9 -10 -19z"/>
<path d="M958 4108 c6 -6 18 -8 28 -6 14 3 12 5 -9 10 -19 3 -25 2 -19 -4z"/>
<path d="M1018 4113 c7 -3 16 -2 19 1 4 3 -2 6 -13 5 -11 0 -14 -3 -6 -6z"/>
<path d="M541 3915 c-8 -24 -10 -40 -4 -42 7 -3 7 -17 0 -42 -11 -39 -5 -71
13 -71 5 0 10 7 10 15 0 8 4 15 10 15 18 0 23 69 7 93 -8 13 -17 34 -19 47 -3
20 -5 18 -17 -15z"/>
<path d="M1930 2853 c0 -13 5 -23 10 -23 13 0 13 11 0 30 -8 12 -10 11 -10 -7z"/>
<path d="M3981 3354 c0 -11 3 -14 6 -6 3 7 2 16 -1 19 -3 4 -6 -2 -5 -13z"/>
<path d="M3981 1934 c0 -11 3 -14 6 -6 3 7 2 16 -1 19 -3 4 -6 -2 -5 -13z"/>
<path d="M3982 1350 c0 -14 2 -19 5 -12 2 6 2 18 0 25 -3 6 -5 1 -5 -13z"/>
<path d="M1636 13695 c4 -8 12 -15 20 -15 8 0 14 7 14 15 0 8 -9 15 -20 15
-13 0 -18 -5 -14 -15z"/>
<path d="M2070 13690 c0 -24 11 -25 50 -5 40 21 38 25 -10 25 -33 0 -40 -3
-40 -20z"/>
<path d="M2989 13683 c16 -19 20 -34 15 -59 -5 -29 -1 -36 42 -75 26 -24 52
-43 59 -41 6 1 20 -7 30 -18 19 -21 19 -21 52 16 18 21 33 45 33 54 0 9 9 25
20 35 11 10 20 21 20 25 0 4 -18 26 -40 49 l-40 41 -106 0 -105 0 20 -27z"/>
<path d="M2582 13578 c-7 -7 -12 -17 -12 -23 0 -13 54 -55 70 -55 17 0 11 19
-10 30 -11 6 -20 19 -20 30 0 24 -13 33 -28 18z"/>
<path d="M1450 13460 c0 -5 5 -10 10 -10 6 0 10 5 10 10 0 6 -4 10 -10 10 -5
0 -10 -4 -10 -10z"/>
<path d="M1954 13446 c-4 -17 0 -33 14 -50 10 -14 25 -47 32 -73 8 -26 19 -57
26 -68 7 -11 17 -39 23 -61 9 -34 16 -43 39 -47 15 -3 37 -8 50 -12 21 -7 22
-5 22 49 0 59 -25 119 -61 144 -13 9 -19 28 -21 75 -3 56 -5 62 -23 59 -36 -6
-50 -6 -72 2 -18 6 -23 3 -29 -18z"/>
<path d="M1574 13385 c-4 -18 -2 -32 9 -43 15 -14 17 -14 22 0 9 24 2 61 -12
65 -7 3 -15 -8 -19 -22z"/>
<path d="M2606 13324 c-7 -19 10 -44 30 -44 17 0 18 14 4 41 -13 23 -26 24
-34 3z"/>
<path d="M1298 13305 c-7 -32 8 -42 21 -16 15 27 14 41 -3 41 -7 0 -16 -11
-18 -25z"/>
<path d="M2482 13083 c2 -9 8 -18 15 -20 7 -3 9 3 6 16 -6 25 -26 28 -21 4z"/>
<path d="M1706 13031 c-4 -7 -5 -15 -2 -18 9 -9 19 4 14 18 -4 11 -6 11 -12 0z"/>
<path d="M6532 12983 c5 -25 28 -28 28 -4 0 12 -6 21 -16 21 -9 0 -14 -7 -12
-17z"/>
<path d="M2853 12874 c-3 -9 -1 -25 5 -35 7 -10 12 -35 12 -54 0 -42 21 -47
38 -10 16 35 15 66 -4 93 -18 26 -42 29 -51 6z"/>
<path d="M7210 12741 c0 -5 9 -11 20 -14 13 -3 20 0 20 9 0 8 -9 14 -20 14
-11 0 -20 -4 -20 -9z"/>
<path d="M2150 12696 c0 -35 25 -52 55 -38 14 7 25 17 25 23 0 17 -32 38 -57
39 -18 0 -23 -6 -23 -24z"/>
<path d="M1921 12701 c-10 -6 -10 -10 -1 -16 13 -8 24 -1 19 14 -3 6 -10 7
-18 2z"/>
<path d="M1562 12631 c-10 -6 -11 -19 -7 -45 9 -45 21 -53 46 -30 24 22 25 60
0 74 -23 12 -22 12 -39 1z"/>
<path d="M6776 12521 c-7 -50 7 -101 27 -101 6 0 18 -6 26 -14 24 -22 71 -31
71 -15 -1 33 -20 94 -32 104 -8 5 -24 25 -37 43 -32 46 -47 41 -55 -17z"/>
<path d="M1780 12487 c0 -19 26 -68 32 -62 9 10 -7 68 -20 73 -6 2 -12 -3 -12
-11z"/>
<path d="M2410 12487 c0 -8 9 -22 20 -32 17 -16 20 -16 20 -2 0 14 -25 47 -36
47 -2 0 -4 -6 -4 -13z"/>
<path d="M6208 12368 c-3 -7 -2 -22 2 -33 7 -19 7 -19 15 4 7 24 -8 53 -17 29z"/>
<path d="M7403 12284 c-7 -18 12 -34 40 -34 18 0 21 8 11 34 -8 21 -43 21 -51
0z"/>
<path d="M6375 11840 c-3 -4 -1 -19 3 -32 5 -12 7 -40 4 -60 -2 -23 0 -38 6
-38 24 0 30 125 7 134 -8 3 -17 1 -20 -4z"/>
<path d="M721 10254 c0 -11 3 -14 6 -6 3 7 2 16 -1 19 -3 4 -6 -2 -5 -13z"/>
<path d="M730 9880 c-14 -4 -36 -5 -50 -3 l-25 5 24 -18 c17 -12 26 -14 29 -6
2 7 19 12 38 12 21 0 33 4 29 10 -7 11 -10 11 -45 0z"/>
<path d="M8753 7449 c-3 -10 -9 -19 -13 -19 -4 0 -10 -18 -14 -41 -7 -42 12
-82 59 -121 24 -21 34 -21 102 -6 l53 13 0 77 0 78 -27 0 c-16 0 -57 9 -92 19
-63 20 -63 20 -68 0z"/>
<path d="M7608 2183 c7 -3 16 -2 19 1 4 3 -2 6 -13 5 -11 0 -14 -3 -6 -6z"/>
<path d="M7420 2071 c0 -6 5 -13 10 -16 6 -3 10 1 10 9 0 9 -4 16 -10 16 -5 0
-10 -4 -10 -9z"/>
</g>
</svg>
